<svg xmlns="http://www.w3.org/2000/svg" width="1113" height="750" viewBox="0 0 1113 750">
    <defs>
        <linearGradient id="abl5zgtz9a" x1="12.066%" x2="48.677%" y1="46.227%" y2="55.575%">
            <stop offset="0%" stop-color="#FF0C91"/>
            <stop offset="100%" stop-color="#FF0558"/>
        </linearGradient>
    </defs>
    <g fill="none" fill-rule="evenodd">
        <path d="M30 52H1070V707H30z"/>
        <path stroke="url(#abl5zgtz9a)" stroke-width="3" d="M1011.566 166.785c3.643.673 6.194 2.957 8.128 6.182 2.121 3.714 2.46 7.295 1.683 10.828-1.023 4.644-3.895 9.194-7.193 13.855l-.354.5-42.87 69.563c1.646-.048 2.788-.086 2.788-.086.393-.014 11.908-.406 14.23-.733 24.673-1.714 42.143-.715 43.884 1.027 1.286 1.27 2.608 2.407 2.678 4.494.053 1.568-.56 3.586-2.19 6.34-.75 1.655-1.665 3.423-2.76 5.544-.718 1.39-1.512 2.93-2.368 4.641-1.815 3.63-7.995 7.616-12.265 10.457-2.34 1.557-4.14 2.86-4.816 3.617-1.424 1.303-15.312 1.304-19.403 1.322-2.346-.332-14.057.022-28.809 1.672l-.54.061-.574.066-2.845.527-.524 2.828c-.387 2.757-2.19 25.053-2.19 25.053l-.113 1.407c.852.127 1.408.201 1.408.201s5.477.73 8.46.739c5.168.324 22.787-.395 26.524-.728 10.05-.367 17.178-.27 21.678.659 1.835.378 3.194.869 4.054 1.592.612.516.88 1.165.831 1.965-.003.534-.141 1.286-.282 2.125-.207 1.23-.431 2.616-.445 3.668-.791 5.977-3.012 11.312-5.752 15.514-3.167 4.856-7.008 8.236-10.115 9.138-3.17 1.099-9.435.315-15.298-.379-8.061-.74-15.749-.407-22.367.329-.187-.01-2.495.943-3.593 1.538-1.783.689-2.87 1.512-3.61 2.684-.665 1.052-1.041 2.439-1.252 4.456l-.037.385-1.154 25.722h2.465c6.688.005 48.853.056 57.814.722 11.337.734 35.048-2.587 43.038-4.386 2.37-.53 4.774.12 6.781 1.208 2.474 1.34 4.469 3.368 4.815 4.913 1.488 5.755-1.245 16.285-5.821 25.523-4.037 8.148-9.548 15.445-15.272 17.314-8.114 2.903-14.977.947-21.748-1.012l-.414-.12-1.159-.334c-.56-.166-1.112-.334-1.66-.5-3.026-.916-5.884-1.771-8.688-2.057-8.443-.884-19.409-.534-29.772-.198-2.089.068-4.153.134-6.167.19-6.96.348-13.08.644-20.077.711l-1.514.01-1.448.004h-4.006v4.001c-.393 53.134-4.193 110.195-11.008 122.075-2.227 3.454-5.1 6.19-7.918 8.065-3.022 2.012-5.976 3.104-7.857 2.76-1.971-.33-3.908-2.102-5.551-4.76-1.703-2.752-3.06-6.487-3.72-10.939-.908-5.818-1.068-16.871-1.276-30.453-.048-3.135-.098-6.405-.16-9.777 0-11.581-1.288-39.817-2.148-58.667-.417-9.118-.733-16.031-.752-17.768v-.088l-.524-4.2c-.94.098-1.473.156-1.473.156l-.035.004c-1.155.132-30.096 3.451-36.906 6.66-12.149 5.427-14.803 5.276-18.456 4.967-.802-.029-1.27-.06-1.77-.093-1.207-.08-2.584-.162-4.153.06-1.375-.065-9.08-1.371-9.408-1.426l-1.292-.217-.186-.032-2.432 14.445c-4.572 22.16-23.61 34.068-31.31 37.92-.655.45-1.092.64-1.51.674-.342.029-.66-.056-.926-.239-4.649-1.91-13.536-25.835-17.33-35.603-.829-2.134-1.418-3.648-1.671-4.211-5.15-9.608-4.65-14.039-3.154-17.363 6.06-2.351 19.033 1.2 28.519 3.646.985.254 1.934.499 2.837.728l.669.168 5.113 1.56 10.227 2.377c1.568-1.281 1.948-3.303 1.597-5.396-.373-2.223-1.547-4.464-2.033-5.32l-.06-.105-.285-1.535c-2.23-11.25 3.111-16.412 6.061-19.265.209-.201.406-.392.59-.574.968-.642 2.721-2.409 3.501-3.524.604-.762 1.206-1.604 1.831-2.481 1.915-2.687 4.052-5.766 7.425-7.573 4.466-2.2 8.017-2.966 8.548-3.072 12.501-1.43 54.515-5.246 56.184-5.397l.065-.006 1.196-.108.186-.017-.76-23.851-.535-4.068-3.947.52c-5.526.383-11.255.967-17.916 1.646-5.973.609-12.698 1.295-20.705 1.98-5.649.668-27.288.716-30.783.72H834.908l-3.717 7.452c-3.715 10.987-20.244 33.11-21.379 34.622-.292.294-.578.594-.864.894-1.616 1.696-3.226 3.464-6.554 4.02-1.057.424-4.424.73-8.506 1.039-9.402 1.116-45.569 5.719-46.291 5.81l-2.346.3-.252.032 4.083 5.292c.347.473.72.973 1.11 1.497 2.808 3.767 6.618 8.85 8.77 14.743 13.614 36.978 8.699 50.135 5.412 58.72-.586 1.532-1.117 2.925-1.492 4.279-.341 1.166-1.145 2.636-2.496 3.56-.959.655-2.202 1.007-3.743.768-2.023-.23-3.784-1.028-5.896-1.951-.872-.382-1.798-.786-2.81-1.191-.472-.144-.815-.24-1.168-.339-2.123-.592-4.614-1.238-6.353-2.662-2.876-2.159-6.742-22.095-7.76-42.976-.304-7.352 2.545-17.584 6.131-30.646l.231-.84h0l.233-.85.212-.775 1.684-6.317-42.823 8.965.197-.364c-2.083.75-3.563 1.28-3.67 1.319-.006.002-17.19 6.155-18.628 6.482-3.983 1.64-7.722 2.318-11.019 2.528-5.63.36-10.144-.48-10.338-.674-.324-.311-.538-.36-.735-.404-1.861-.414-5.211-1.038-6.982-3.32-.62-1.138-.782-2.587-.737-3.961.06-1.807.47-3.544.95-4.313 3.573-3.203 4.983-3.642 11.16-5.164l.419-.103 3.04-1.344c-.175-1.17-.219-1.535-.293-2.172-.092-.8-.23-2.017-.404-3.573-.388-3.465-.957-8.607-1.613-14.566-2.425-22.024-6.045-55.213-6.153-56.204l-.247-2.266-.028-.255-4.502 3.155c-.412.213-2.123 1.09-2.745 1.373-19.869 10.614-42.104 10.952-61.505.378-.68-.457-1.896-1.26-3.455-2.267-5.112-3.301-14.727-9.128-14.955-9.858-.54-.982-.656-1.601-.458-2.197.277-.833 1.01-1.575 1.98-2.312 3.2-2.435 8.94-4.532 14.711-6.676 4.712-1.75 9.452-3.518 12.993-5.454 8.659-4.365 16.654-8.729 22.076-11.97 49.831-32.432 85.063-93.857 88.315-101.491 1.322-2.879 1.385-5.147.79-7.1-.75-2.454-2.649-4.432-4.767-6.526-.23-.227-.462-.456-.694-.689-1.32-1.32-2.053-2.651-3.058-4.43-.587-1.039-1.256-2.221-2.143-3.623-3.248-4.192-4.596-8.868-4.763-13.16-.201-5.178 1.28-9.85 3.482-12.07 1.846-1.673 4.495-3.966 9.222-2.682 3.501.95 7.995 3.71 13.943 9.535 13.152 12.421 29.55 22.293 45.618 28.495 5.125 1.968 10.21 3.1 14.296 4.005 1.169.259 2.254.499 3.231.736 2.396.383 4.254.651 5.565 1.219l.239.11 1.05.131c2.8 1.041 6.767 2.767 9.868 6.529 2.125 2.578 3.83 6.112 4.5 11.009 1.027 7.93-1.107 9.563-7.915 15.425-1.22 1.105-2.263 2.02-3.375 2.994-3.427 3.003-7.485 6.56-12.149 11.776-10.014 10.755-13.538 26.062-14.055 37.103l-.022.506-.534 5.742 5.236-1.176c13.787-2.917 18.175-4.052 19.247-4.386 3.47-1 10.376-.934 17.897 1.448 6.206 1.97 12.141 3.933 18.296 7.258l.84.461.845.48 10.928 5.704c-.836-1.975-1.14-3.288-1.162-3.386-.044-.204-1.311-6.268 1.026-14.02 1.41-4.936 9.597-16.36 27.7-23.985 3.659-1.434 26.705-4.248 26.705-4.248.1-.012 1.068-.13 2.59-.308-.975-1.268-1.567-2.07-1.567-2.07s-7.874-10.662-11.06-17.428c-5.456-11.977-11.647-22.555-18.96-31.674l-.3-.426c-3.3-4.704-6.643-9.354-7.317-14.743-.544-4.063 2.317-6.406 3.623-7.547.26-.227.477-.418.632-.574 4.616-5.128 7.86-5.824 12.969-6.977 1.919-.433 4.084-.922 6.635-1.68 4.208-1.228 9.711-1.435 11.411-.516.202.153.432.317.682.495 1.346.96 3.5 2.372 4.065 4.983.252 3.914 1.26 8.712 1.945 11.946.258 1.224.469 2.212.563 2.821.744 7.398 2.984 19.1 6.99 26.119l.764 1.978c3.456 8.969 7.259 18.638 11.34 22.841.841 1.36 6.36 9.92 12.798 11.35 1.117.036 10.05-8.741 10.05-8.741 5.087-7.211 8.371-13.672 10.5-17.862.822-1.619 1.463-2.886 1.959-3.694 4.312-8.551 6.526-17.735 13.934-49.166l.226-.96.46-1.955c1.303-5.207 2.811-7.554 4.782-8.868 3.96-3.226 7.794-6.062 9.203-6.767 14.302-7.663 23.03-7.404 31.064-5.3zm-313.972 282.57l2.73 4.054c3.137 4.214 5.55 10.492 6.957 16.12.44 1.537.823 2.927 1.186 4.242 1.518 5.506 2.694 9.724 5.071 14.161l.48.98c2.694 5.483 5.936 12.063 7.276 22.723 1.072 7.603-.202 13.442-2.459 17.804-3.445 6.657-9.15 9.856-11.833 10.483-.624.097-1.163.223-1.663.341-.948.224-1.707.44-2.887.072-.3-.155-.618-.342-.965-.544-1.389-.81-3.174-1.84-5.809-2.431-2.965-.487-6.623-6.137-10.037-12.842-4.014-7.884-7.544-17.686-8.658-24.91-1.369-10.06 9.87-30.48 16.338-42.304l.224-.409 4.049-7.54zm28.068-55.544l-4.65 1.691-.484.131c-1.423.387-2.57.73-3.628 1.046-1.588.474-2.966.887-4.843 1.309-1.407.36-2.575.72-3.87 1.119-1.214.374-2.543.784-4.728 1.377h0l-2.949.546v3.521l1.78 13.72v5.454l5.281-2.371.438-.151c2.005-.697 3.473-1.319 4.835-1.896 1.285-.545 2.47-1.049 3.957-1.537 1.512-.38 2.544-.76 3.75-1.207 1.013-.374 2.156-.797 3.871-1.312h0l3-1-.509-3.358-.723-11.903-.528-5.179zm180.573-81.096H903.3l-1.45.33h-8.156l-1.128.03c-8.266.273-16.293 1.812-24.397 3.372-8.015 1.543-16.108 3.106-24.598 3.417h0l-2.879.079-.843 10.041v1.422l-.051.405c-.154 1.175-.302 2.019-.477 3.02-.23 1.312-.506 2.886-.898 5.756h0l-15.421 64.105 16.172-54.412.012-.037c.153-.482 1.145-3.081 4.46-4.012 3.077-1.128 9.365-.824 12.724-.692.823.032 1.484.057 1.906.058 16.378.388 31.36-2.075 45.628-5.912h0l1.238-.336 2.002-1.296v-2.566l.332-7.97-.033-.463c-.152-2.123-.243-3.734-.322-5.14-.107-1.912-.194-3.451-.382-5.363h0l-.504-3.836zM784.469 379.26c-.635 0-1.546.122-1.78.155-2.464.21-4.538.71-7.027 1.319-1.407.344-2.953.722-4.798 1.095h0l-.531.106-3.418.518v9.902l-.081.716c-.223 2.14-.246 4.216-.248 6.082h0v5.377l4.748-1.188.534-.123c1.392-.327 2.54-.655 3.686-.982 1.068-.306 2.136-.611 3.417-.916h0l.728-.169 3.285-1.073 2.099-.656v-2.798l.083-.737c.281-2.5.6-5.424.88-8.141h0l.092-.893v-3.02l-.242-4.465-.21-.025c-.37-.042-.842-.084-1.217-.084zm-61.11-32.422l-4.676.531-19.57 5.093-2.955.547v3.449l.33 10.092v3.983h3.676l.417-.002c6.218-.043 10.616-1.065 19.914-3.45h0l.543-.139 3.584-.543-.545-3.595-.718-11.43v-4.536zm64.51-15.784c-.348 0-4.03 1.016-4.367 1.113h0l-14.142 3.966-3.236 1.08v17.448l4.718-1.18.511-.094c2.007-.372 3.576-.704 5.023-1.01 2.275-.48 4.24-.895 7.177-1.306h0l.574-.08 3.461-.524V347l.002-.503c.024-4.468.363-7.43.695-9.682h0l1.422-5.333-.175-.046c-.81-.21-1.52-.383-1.663-.383zm-60.536-74.077h-1.515l-1.134 1.65-.914 1.111c-13.326 16.317-23.434 33.59-32.166 48.937h0l-.605 1.064-3.944 7.56-4.681 7.557 8.795-1.717 31.412-6.865 2.42-.55.52-2.813.081-.784c1.487-14.115 5.012-28.506 7.492-37.084.317-1.714.694-3.493 1.038-4.603 1.18-4.87.64-8.45-1.057-11.243-1.78-1.78-3.955-2.22-5.742-2.22h0zm-503.008-91.243c8.72.734 18.856 10.362 23.821 16.039 1.55 1.76 2.455 3.29 3.13 4.424.731 1.231 1.308 2.053 1.913 2.47 4.522 2.03 13.361 3.6 21.787 1.704 7.264-1.8 21.786-2.92 29.107-3.254 3.898 0 8.886.141 11.211 3.046 1.76 3.05.281 7.173-.117 8.403-.474 1.694-2.625 6.277-5.08 10.154-1.006 1.521-1.903 3.139-2.794 4.75-2.742 4.96-5.347 10.03-11.953 11.092-18.265 2.536-39.747 7.64-40.176 7.743l-.905.218-.17.041-1.664 24.794h1.865c3.908-.006 23.757-.07 31.788-.741.614-.027 8.736-.4 15.235-1.84 6.014-1.032 9.592-1.04 13.475-.72 1.66.307 3.236 1.929 4.676 3.913 2.07 2.853 3.794 6.614 4.754 9.744.521.964.675 1.302.85 1.727.302.737.663 1.712 1.034 2.868.536 1.67 1.09 3.713 1.513 5.956.596 3.16.935 6.722.575 10.189-.308 2.288-.558 4.577-.817 6.944-.692 6.34-1.445 13.253-3.583 22.295-1.218 4.543-2.185 8.654-3.08 12.458-1.264 5.368-2.38 10.119-3.866 14.617-.807 2.443-1.621 5.034-2.437 7.633-1.747 5.56-3.502 11.157-5.23 15.393-.642 1.308-1.24 2.682-1.844 4.072-1.704 3.92-3.427 8-6.587 10.875-2.021 2.275-7.086 3.738-8.908 4.278-8.866.735-16.695 1.08-23.377 1.374-11.242.495-19.3.933-21.248 1.859l-.088.044-1.867 1.252-1.621 27.863c1.094-.1 1.727-.154 1.727-.154s20.855-1.808 30.346-1.808c5.838-.172 13.576-1.396 21.78-2.7 10.963-1.742 22.776-3.632 31.784-3.21 3.136.001 5.157 1.034 6.293 2.667 1.487 2.136 1.497 5.11.793 7.576-2.175 7.233-9.702 21.94-14.365 26.999-7.037 7.68-25.926 3.893-27.679 3.569-3.375-.417-40.469.01-50.653 3.894l-.3.118-2.63 1.282-.018.906v.023c-.021.955-1.08 48.76-3.263 61.11-.413 1.867-.75 3.8-.765 5.667-.4 2.462-.605 4.542-.789 6.424-.61 6.237-1.012 10.163-8.4 19.201-1.053 1.15-12.226 13.256-14.947 12.741-3.095-1.074-8.092-3.817-11.668-8.018-2.395-2.815-4.157-6.3-4.157-10.413 0-9.226-2.354-47.2-3.64-67.936-.398-6.409-.693-11.167-.784-12.911l-.007-.12-1.213-3.935-1.352.303-.135.03c-1.52.34-14.6 3.264-18.165 3.98-7.384.85-65.574 16.711-70.359 19.678-4.49 2.745-16.336 5.091-27.612 5.738-9.263.532-18.225-.013-22.249-2.745-3.848-2.705-5.905-5.791-6.898-8.912-1.518-4.771-.61-9.584.03-13.172.065-.368.129-.723.188-1.066.229-1.999 1.28-3.158 2.429-4.284l.522-.506c.205-.2.412-.402.618-.608 3.807-3.221 6.334-5.57 8.395-7.487 1.893-1.76 3.382-3.149 5.136-4.52 1.337-1.655 3.391-4.095 3.8-4.522 2.427-2.084 7.366-4.337 17.647-4.024 9.313.407 15.23-.34 20.466-1.089 2.283-.36 4.548-.668 6.562-.717l.543-.007h.531c1.745-.003 3.877-.032 6.9-.339 17.028-.76 70.402-11.779 70.402-11.779s.394-.081 1.123-.234c.048-.719.07-1.131.07-1.131s1.253-23.118-2.419-25.533l-.121-.072-3.221-1.022c-.368.067-34.842 6.4-42.624 10.124-6.573 3.098-18.655 2.44-24.225-1.36-6.156-4.039-24.113-36.224-27.734-48.475-6.455-20.23-12.813-45.1-11.033-50.177 1.842-5.194 7.016-15.542 8.829-19.172.302-.605.514-1.032.61-1.23.308-.507.603-1.022.898-1.54 1.638-2.866 3.263-5.845 8.106-7.261 6.942-1.627 11.163-1.752 15.429-1.762H113.343c.064-.006 11.367-1.013 17.387-1.072l.27-.002h.79l1.202.005c6.296.032 18.433.088 30.905-2.248 13.294-2.23 28.8-6.68 28.8-6.68s.37-.107 1.042-.306c.033-.697.043-1.094.043-1.094v-.024c.016-.658.311-14.907-2.65-22.647-.13-.344-.276-.693-.433-1.045-.698.054-1.085.086-1.085.086s-32.859 2.708-38.872 6.468c-3.711 2.657-7.348 2.927-12.64.942-1.438-.416-6.287-2.481-7.69-3.496-4.967-3.924-5.973-6.096-7.965-10.353-.696-1.486-1.503-3.211-2.608-5.321-2.33-4.434-3.606-8.212-3.434-11.32.144-2.616 1.413-4.669 3.944-6.166 4.437-2.956 9.3-3.843 14.4-4.814 2.489-.474 5.034-.96 7.614-1.667 2-.417 13.932-2.193 21.139-2.92 10.945-1.36 18.893-2.63 24.198-4.281 5.513-1.715 8.251-3.956 9.046-6.74 3.265-10.773 7.168-17.116 11.233-20.761 5.808-5.208 11.863-4.708 16.346-4.3zm39.748 172.398c-3.14-2.356-28.058-1.218-53.645 1.67-26.134 2.95-52.51 7.522-55.963 10.593-3.2 3.038-3.843 6.23-3.207 9.272.828 3.962 4.072 7.738 6.87 10.538 2.621 2.621 7.096 2.824 44.608-1.788 6.495-.776 13.537-1.765 20.434-2.733 15.7-2.204 30.651-4.335 36.588-3.531h0l3.266-1.376.255-.316c2.623-3.315 4.88-8.13 5.118-12.608.2-3.777-.987-7.31-4.324-9.721zm3.166-51.226c-13.025-7.057-104.468 7.26-119.713 14.34-.486.237-.847.26-1.134.287-.98.09-1.604.261-2.25 1.166-.335.47-.698 1.285-1.12 2.872-1.011 4.693-.776 8.045.081 10.565 1.207 3.547 3.658 5.524 6.085 7.2 1.16.751 2.621 2.14 55.754-3.469 25.469-2.966 53.091-7.423 59.866-9.275 1.43-.505 2.767-1.437 3.886-3.183.165-.529.347-1.074.529-1.619.177-.534.355-1.067.518-1.586 1.728-3.906 2.8-7.553 2.447-10.566-.326-2.78-1.753-5.118-4.949-6.732zm346.59 175.798l.533 1.795c.278.894.395 1.098.7 1.64.167.297.407.723.813 1.553 2.48 4.346 8.12 15.814 11.324 28.832 2.058 9.084.315 20.65-2.748 27.325-1.824 3.326-3.887 5.752-6.035 6.093-5.19 1.405-7.564 4.202-9.486 7.033-1.646 2.035-4.663 3.968-7.608 5.571-1.746.64-4.753-.425-5.968-1.123-4.387-3.758-8.269-14.1-8.269-27.118 0-18.804 16.452-44.379 26.628-51.52l.116-.081zm-81.53-233.614c2.513 0 5.724 1.204 8.638 4.147 2.41 2.434 4.601 6.036 6.097 11.11 1.373 3.865-.39 12.795-3.74 17.628-4.538 7.186-5.685 14.815-6.633 21.32-.21 1.446-.413 2.833-.646 4.146-4.676 24.214-3.246 75.923-1.796 109.43.725 24.178 1.783 49.44 4.682 69.544 2.866 21.686 2.484 29.812 2.158 34.581-.153 3.884-2.392 7.206-5.36 9.948-4.33 4-10.272 6.786-14.476 8.03-6.473 2.116-16.664 2.244-20.772-.193-4.794-2.824-8.435-8.854-10.483-17.235-2.877-11.458-3.967-45.027-4.294-62.753-.246-5.341-.466-8.507-.598-10.409-.077-1.115-.125-1.774-.125-2.168-.446-2.643-1.9-5.07-4.265-7.132-2.103-1.834-4.931-3.385-8.33-4.34-6.543-1.859-45.67-1.87-56.293 1.505-4.774 1.538-7.7 3.549-9.586 5.742-2.438 2.835-3.158 6.018-3.69 9.119l-.12.713c-.112.684-.224 1.36-.356 2.022l-.14.656-1.094 3.5c-2.858 11.01-13.97 39.38-22.53 53.793-6.715 11.316-22.313 21.852-33.993 28.038-4.622 2.344-10.213 3.108-14.494 1.057-3.758-1.404-10.485-4.259-11.836-8.37-.783-2.86-.401-5.575 1.094-8.404 1.71-3.236 4.807-6.59 9.235-10.421 3.644-3.072 9.576-11.379 9.572-11.373 42.313-58.948 25.085-167.923 17.146-205.974-.043-.209-.087-.42-.132-.626-.035-.15-.076-.313-.123-.492-.61-2.328-2.173-8.203-.813-14.522.783-2.348 5.454-6.936 7.985-9.302.142.059.304.113.483.162.293-.272.573-.544.778-.759.242-.251.558-.608.862-.967.319-.376.624-.755 1.055-1.432l-.033.05c2.562-2.046 7.066-4.328 11.344-4.88 4.72-.694 10.981 1.748 19.771 5.407l.541.225.825.345h.812c26.216 5.131 94.983-3.056 119.586-14.645 1.101-.53 2.218-1.212 3.394-1.933 2.91-1.786 6.228-3.888 10.693-3.888zm-53.833 121.349c-2.593-.943-5.749-1.139-7.912-.742h0-5.23l-.984-.023c-15.395-.36-29.213-.117-39.218.873-4.81.476-8.753 1.129-11.596 1.96-3.287.963-5.129 2.29-5.74 3.646-2.223 5.083-1.362 24.293-.255 26.22.251.437 1.28 1.312 2.785 2.411 1.742.994 4.033 1.661 6.799 1.661.706 0 1.38-.043 2.023-.124 7.25.582 25.845 1.548 41.047.11 10.16-.963 18.484-3.087 21.096-6.526 3.402-4.366 4.732-17.232 2.024-25.092-.61-2.001-2.447-3.504-4.84-4.374zm6.23-62.846c-7.596-5.346-31.998-3.368-72.65 1.41 0 0-1.362.855-2.542 2.282h0l-.78 1.107-.049.074c-1.076 1.84-1.715 13.66-.208 22.166.153 1.027.491 1.756.853 2.28.81 1.175 1.791 1.462 2.015 1.514 15.72 4.855 60.889 2.575 71.064-1.669h0l2.503-2.58-.023-.13c-.037-.203-.06-.336-.06-.393 0-.104.078-.472.175-1.055.585-3.529 2.2-13.33 1.3-22.451h0l-1.374-2.39z" transform="rotate(20 556.5 375)"/>
    </g>
</svg>
