<?xml version="1.0" encoding="UTF-8"?>
<svg width="1580px" height="632px" viewBox="0 0 1580 632" version="1.1" xmlns="http://www.w3.org/2000/svg" xmlns:xlink="http://www.w3.org/1999/xlink">
    <title>AEB81243-5E3D-4C0F-99EF-BD2D8C433BA3</title>
    <defs>
        <linearGradient x1="12.0657159%" y1="46.4109029%" x2="48.6773777%" y2="55.3033263%" id="linearGradient-1">
            <stop stop-color="#FF0C91" offset="0%"></stop>
            <stop stop-color="#FF0558" offset="100%"></stop>
        </linearGradient>
    </defs>
    <g id="Assets" stroke="none" stroke-width="1" fill="none" fill-rule="evenodd">
        <g id="watcha_pc_elements" transform="translate(-170.000000, -445.000000)" stroke="url(#linearGradient-1)" stroke-width="3">
            <path d="M780.22918,446.5 L682.636039,1031.79792 L538.67956,1046.87846 L490.981107,778.746907 L478.478281,779.39949 L443.008584,1056.90573 L266.796798,1075.36503 L171.819953,587.1832 L327.609019,587.1832 L372.712503,888.594865 L385.224662,887.894457 L431.979997,587.1832 L528.788608,587.1832 L591.242854,874.286274 L601.228611,873.739459 L630.712314,446.5 L780.22918,446.5 Z M961.070667,582.5 L1024.27995,996.357525 L922.521759,1007.09267 L915.118107,929.444367 L852.134294,934.953926 L844.917294,1015.27375 L730.799152,1027.30206 L803.895811,582.5 L961.070667,582.5 Z M891.405058,680.902823 L874.94777,681.155962 L859.283933,855.420803 L907.751328,852.236794 L891.405058,680.902823 Z M1007.5,588.5 L1205.5,588.5 L1205.5,684.52986 L1154.6258,685.854791 L1154.6258,983.298585 L1068.2981,992.334795 L1068.2981,688.104749 L1007.5,689.688358 L1007.5,588.5 Z M1311.19282,578.5 C1337.76442,578.5 1358.57272,585.737081 1372.95954,598.300326 C1387.96644,611.405039 1395.93628,630.284352 1396.24164,652.59373 L1396.24164,652.59373 L1396.25078,653.936683 L1396.25078,720.402022 L1325.10263,723.10242 L1325.10263,653.798283 L1297.27666,654.194343 L1297.27666,911.848185 L1325.10263,909.542545 L1325.10263,807.587068 L1397.5,803.30946 L1397.5,880.568041 C1397.5,904.560649 1389.81487,924.564359 1374.7754,939.289959 C1360.01056,953.746664 1338.20432,963.101355 1309.78368,966.268935 C1278.88545,969.714688 1256.35804,965.91771 1241.39924,955.287903 C1226.01933,944.358859 1218.788,926.219594 1218.5085,901.70652 L1218.5085,901.70652 L1218.5,900.211087 L1218.5,657.017176 C1218.5,633.060765 1227.14357,613.25541 1243.28296,599.544925 C1259.13895,586.075201 1282.17221,578.5 1311.19282,578.5 Z M1584.5,582.5 L1584.5,933.444174 L1522.4767,940.034704 L1522.4767,792.32649 L1493.71678,794.101196 L1493.71678,943.09347 L1424.5,950.334884 L1424.5,582.5 L1493.71678,582.5 L1493.71678,727.711256 L1522.4767,726.488052 L1522.4767,582.5 L1584.5,582.5 Z M1720.40811,587.5 L1748.38266,921.17766 L1696.20065,926.714985 L1692.26686,856.321788 L1667.10935,858.509754 L1665.10959,929.99678 L1605.62168,936.319199 L1630.10773,587.5 L1720.40811,587.5 Z M1681.55805,664.708144 L1672.55237,664.708144 L1668.61754,804.752746 L1689.31555,803.447171 L1681.55805,664.708144 Z" id="bg_watcha"></path>
        </g>
    </g>
</svg>