<svg xmlns="http://www.w3.org/2000/svg" xmlns:xlink="http://www.w3.org/1999/xlink" width="625" height="239" viewBox="0 0 625 239">
    <defs>
        <linearGradient id="drlhapna9a" x1="84.055%" x2="52.921%" y1="119.561%" y2="50%">
            <stop offset="0%" stop-color="#FF4EEC"/>
            <stop offset="100%" stop-color="#FF0558"/>
        </linearGradient>
        <linearGradient id="8uhw2ldddc" x1="105.834%" x2="65.931%" y1="59.961%" y2="47.645%">
            <stop offset="0%" stop-color="#FF4EEC"/>
            <stop offset="100%" stop-color="#FF0558"/>
        </linearGradient>
        <path id="sm3eekodbb" d="M381.625 52.24L625 51.292 618.552 122.376 386.974 122.464 370.15 137.977z"/>
    </defs>
    <g fill="none" fill-rule="evenodd">
        <g>
            <g>
                <path fill="url(#drlhapna9a)" fill-rule="nonzero" d="M143.134 199.908l-1.848 15.934h-32.852l-2.706 23.14h-21.41l2.72-23.14H54.184l1.887-15.934h87.062zm-108.242-50.93c13.324 0 23.525 7.208 21.928 20.676l-.45 3.794c-1.394 11.76-6.821 17.64-18.242 28.547-11.533 11.001-14.717 13.088-15.272 17.735l-.204 1.707h28.029l-1.799 15.175H0l2.076-17.295.051-.402.054-.399.057-.396c.927-6.194 3.349-11.68 20.215-25.135 11.175-8.82 13.337-13.468 14.06-19.537l.452-3.794c.361-3.035-.858-5.5-3.883-5.5s-4.832 2.465-5.194 5.5l-.827 6.923H8.148l.83-6.923c1.615-13.468 12.59-20.675 25.914-20.675zm110.565 2.372l-1.87 16.123h-29.499c.87 5.5 7.906 13.277 28.936 12.993l-1.827 15.744c-20.817 0-33.648-5.975-39.437-14.7-7.93 8.725-22.067 14.7-42.884 14.7l1.864-15.744c20.774.284 30.011-7.493 31.887-12.993H63.224l1.909-16.123h80.324zm8.675-51.025l-1.848 15.933H119.52l-2.705 23.142H95.464l2.72-23.142H65.42l1.887-15.933h86.824zm-107.93-50.93c13.288 0 23.459 7.208 21.862 20.676l-.45 3.793c-1.394 11.76-6.809 17.64-18.202 28.547-11.505 11.002-14.68 13.089-15.235 17.736l-.204 1.707h27.952l-1.8 15.175H11.379l2.075-17.296c.084-.672.175-1.33.29-1.984l.072-.392c1.094-5.747 4.218-11.36 19.969-23.955 11.147-8.82 13.304-13.468 14.027-19.538l.452-3.793c.361-3.035-.853-5.501-3.87-5.501-3.017 0-4.82 2.466-5.182 5.5l-.827 6.924H19.523l.83-6.923c1.615-13.468 12.563-20.676 25.85-20.676zm110.262 2.371l-1.871 16.123h-29.417c.866 5.501 7.88 13.278 28.852 12.994l-1.827 15.743c-20.76 0-33.554-5.975-39.324-14.7-7.91 8.725-22.012 14.7-42.771 14.7l1.864-15.743c20.717.284 29.931-7.493 31.803-12.994H74.451l1.909-16.123h80.104z" transform="translate(-121 -112) translate(121 112)"/>
                <path fill="#FFF" fill-rule="nonzero" d="M264.344 149.927l-9.92 88.108h-20.842l.737-6.525-63.789 3.68 9.48-82.418h51.977l-2.045 18.02h-31.203l-5.165 45.144 42.795-2.538 1.625-14.343h-22.522l2.052-18.02h22.51l3.521-31.108h20.79zm83.759 51.214l-2.515 22.857h-59.754l-.382 3.414h61.181l-1.168 10.623h-81.947l2.642-23.521H325.9l.367-3.32h-59.733l1.13-10.053h80.44zm197.896-51.214l-3.325 31.961h14.876l-1.878 18.115h-14.883l-3.957 38.032H515.99l9.22-88.108H546zm32.83 70.277l-1.839 17.83h-18l1.848-17.83h17.991zM445.245 151.35l-3.502 32.625h-59.686l-.517 4.742h60.64l-1.609 14.985h-30.885l-1.324 16.028h32.856l-1.811 16.882h-87.154l1.853-16.882h32.856l1.333-16.029-29.117.001 3.683-33.574h59.662l.47-4.363H363.34l1.582-14.415h80.324zm72.58 1.422l-1.492 14.226c-4.335 41.351-25.835 63.923-59.351 69.14l1.926-18.115c22.19-5.69 34.666-20.77 37.46-48.18h-31.863l1.815-17.07h51.505zm69.198-2.845l-3.814 36.988-3.685 26.556h-17.987l1.806-26.556 3.836-36.988h19.844zm-233.669 33.574l-1.501 13.657h-87.055l1.536-13.657h87.02zm-59.274-34.143l-.52 4.647h38.937l.514-4.647H353.8l-3.37 30.634h-80.391l3.44-30.634h20.6zm39.084 15.744h-38.949l-.424 3.793h38.954l.42-3.793zm-58.979-113.81l-1.784 15.839h9.805l-1.876 16.692h-9.592l-2.159 21.58h-.02l-1.617 14.364h-56.654l-.564 4.932h58.079l-1.656 14.7h-79.172l3.913-34.047h56.715l5.85-54.06h20.732zm92.196 1.423l-10.957 68.19h6.288l-1.876 17.072H272.92l1.92-17.071h26.156l3.887-34.807h20.376l-3.867 34.807h13.632l8.128-51.594H283.47l1.865-16.597h81.047zm-153.464-.475l-.966 8.441h11.029l.963-8.44h19.508l-5.526 48.653h-50.489l5.597-48.654h19.884zm8.342 23.521h-11.034l-1.15 10.053h11.037l1.147-10.053z" transform="translate(-121 -112) translate(121 112)"/>
                <path fill="#FF0558" d="M26.667 25.516c2.916 0 5.184-.577 6.912-1.55V20.94c-1.548.72-3.384 1.478-6.3 1.478-5.436 0-7.56-3.46-7.56-9.335V11.75c0-6.127 3.096-8.65 7.452-8.65 2.376 0 4.14.541 6.12 1.262V1.333C31.78.541 29.8 0 27.135 0c-6.264 0-11.412 3.352-11.412 12.253v.865c0 8.362 4.248 12.398 10.944 12.398zm13.777-.396V13.91h11.304V25.12h3.744V.432h-3.744v10.416H40.444V.432h-3.708V25.12h3.708zm29.437.396c6.769 0 11.053-4.577 11.053-12.362v-.72C80.934 4.289 76.722 0 70.025 0c-6.768 0-11.088 4.613-11.088 12.398v.72c0 8.11 4.248 12.398 10.944 12.398zm.108-2.955c-5.148 0-7.056-3.82-7.056-9.479v-1.261c0-5.082 2.196-8.83 6.912-8.83 5.256.036 7.093 3.784 7.093 9.479v1.189c0 5.154-2.233 8.902-6.949 8.902zm19.97 2.991c5.868 0 8.532-2.883 8.532-7.388 0-4.253-2.34-5.874-6.048-7.064l-2.449-.757c-2.556-.792-3.312-1.73-3.312-3.856 0-2.198 1.548-3.388 4.284-3.388 2.7 0 4.717.65 6.229 1.298V1.37C95.827.685 94.099 0 90.966 0c-5.292 0-7.956 2.811-7.956 6.811s2.088 5.803 5.472 6.848l2.412.793c2.809.9 3.78 1.838 3.78 4 0 2.451-1.475 4-4.968 4-2.628 0-5.04-.648-6.948-1.549v3.027c1.692.937 4.068 1.622 7.2 1.622zm21.085 0c6.084 0 9.072-2.811 9.072-9.154V.432h-3.384v15.822c0 4.973-1.8 6.451-5.544 6.451-3.78 0-5.76-1.514-5.76-6.415V.432h-3.817v16.074c0 6.127 3.384 9.046 9.433 9.046zm17.125-.432V5.55h.144l11.376 19.57h3.744V.432h-3.348v18.489h-.108L129.105.432h-4.284V25.12h3.348zM269.79.036c2.736 0 4.68.469 6.192 1.297v3.46c-1.908-.757-3.6-1.153-5.868-1.153-4.284 0-7.128 2.307-7.128 8.181v1.261c0 5.659 1.98 8.866 7.164 8.866 2.808 0 4.608-.72 6.084-1.333v3.423c-1.692.901-3.96 1.514-6.912 1.514-6.876 0-11.124-4.036-11.124-12.361v-.901c0-8.902 5.184-12.254 11.592-12.254zm-79.685.396l4.212 18.309h.108l5.04-18.309h3.6l4.969 18.309h.108L212.39.432h3.996l-6.048 24.724h-4.393l-4.824-17.948h-.108l-4.896 17.948h-4.356L185.605.432h4.5zm39.326 0l8.784 24.724h-4.572l-2.232-6.271h-9.18L220 25.155h-4.104l9-24.723h4.536zm27.014 0v3.496h-7.02v21.228h-4.428V3.928h-7.092V.432h18.54zm27.59 0v10.2h10.512V.432h4.428v24.724h-4.428V14.128h-10.512v11.028h-4.428V.432h4.428zm30.877 0l8.785 24.724h-4.573l-2.232-6.271h-9.18l-2.232 6.27h-4.104l9-24.723h4.536zM155.738.53l9.58 9.58 9.57-9.57 2.3 2.3-9.57 9.57 9.58 9.58-2.297 2.297-9.58-9.58-9.57 9.57-2.3-2.3 9.571-9.57-9.581-9.58 2.297-2.297zm71.101 5.165h-.108l-3.456 9.875h7.02l-3.456-9.875zm85.481 0h-.108l-3.456 9.875h7.02l-3.456-9.875z" transform="translate(-121 -112) translate(121 112)"/>
                <g transform="translate(-121 -112) translate(121 112)">
                    <use fill="#FF0558" xlink:href="#sm3eekodbb"/>
                    <use fill="url(#8uhw2ldddc)" xlink:href="#sm3eekodbb"/>
                </g>
                <path fill="#FFF" fill-rule="nonzero" d="M412.188 74.507l1.703-13.764h-5.612l-.237 1.926h-4.875c-1.086-1.293-2.938-1.926-5.096-1.926-3.733 0-7.019 1.952-7.475 5.678l-.241 1.977c-.456 3.726 2.356 5.627 6.086 5.627 2.232 0 4.318-.659 5.733-2.053h4.72l-.313 2.535h5.607zm-15.249-4.132c-.99 0-1.65-.608-1.53-1.597l.34-2.763c.12-.988.935-1.622 1.925-1.622s1.674.634 1.552 1.622l-.34 2.763c-.12.989-.957 1.597-1.947 1.597zm10.411-2.104h-3.426l.234-1.9h3.427l-.235 1.9zm-1.105 16.147c2.789 0 5.217-2.002 5.544-4.639.335-2.712-1.608-4.638-4.399-4.638h-12.126c-2.74 0-5.158 1.926-5.49 4.638-.322 2.637 1.613 4.64 4.352 4.64h12.119zm-1.201-3.827h-8.8c-.61 0-.924-.33-.865-.812.069-.557.458-.836 1.067-.836h8.8c.711 0 1.032.279.963.836-.06.482-.455.812-1.165.812zM431.01 65.99l.491-3.93h-4.697l.227-1.824h-5.79l-.226 1.825h-4.749l-.487 3.929h15.231zm4.559 18.301l1.275-10.164h2.638l.609-4.842h-2.64l1.071-8.542h-5.586l-2.945 23.548h5.578zm-9.631-8.567c1.953 0 3.906-2.028 4.22-4.538.317-2.535-1.13-4.562-3.085-4.562h-7.463c-1.955 0-3.907 2.027-4.221 4.562-.311 2.51 1.137 4.538 3.09 4.538h7.459zm-1.09-3.676h-4.263c-.406 0-.628-.456-.578-.862.06-.481.39-.887.796-.887h4.263c.406 0 .61.406.55.887-.05.406-.362.862-.768.862zm-11.59 12.243l16.226-1.013.539-4.31-5.574.355.354-2.839h-5.378l-.394 3.169-5.24.33-.534 4.308zm28.417.837l3.122-6.667h-5.073l-1.598 6.667h3.55zm35.992-10.013l.6-4.69h-16.165l.596-4.689h15.916l.592-4.613h-21.585l-1.772 13.992h21.818zm-.494 8.796l.618-4.816h-23.334l-.61 4.816h23.326zm24.292.38l1.319-10.164h2.639l.629-4.842h-2.64l1.11-8.542h-5.587l-3.048 23.548h5.578zm-21.707-.76l15.735-1.293.59-4.562-10.101.836.558-4.335h7.992l1.638-12.674h-13.585l-.57 4.436h8.073l-.506 3.93h-8.07l-1.754 13.662zm47.06.76l1.337-10.164h2.639l.637-4.842h-2.64l1.124-8.542h-5.587l-3.087 23.548h5.578zm-8.14-.76l2.885-22.028h-13.586l-2.864 22.028 8.436-.913-.12.913h5.25zm-7.577-4.892l1.676-12.852h2.97l-1.635 12.522-3.011.33zm21.82 6.489l3.161-6.667h-5.072l-1.64 6.667h3.55zm27.594-.837l1.359-10.164h3.146l.648-4.842h-3.147l1.143-8.542h-5.587l-3.14 23.548h5.578zm-21.197-.76l15.221-1.014.612-4.588-9.606.71 1.702-12.827h8.377l.574-4.309h-13.966l-2.914 22.028zm48.274-10.469l2.227-12.32h-21.838l-.571 4.26h16.146l-.33 1.875h-15.814l-.54 4.03h15.658l-.368 2.155h5.43zm-15.119 11.483l2.14-6.286h4.26l-.848 6.286h5.477l.85-6.286h3.856l.618-4.563h-23.342l-.612 4.563h4.135l-2.137 6.286h5.603zm41.517-14.88l.347-2.534h-16.22l.114-.837h16.094l.761-5.551h-21.585l-.344 2.535h16.072l-.11.81h-16.072l-.756 5.577h21.699zm.163 4.36l.47-3.422h-23.348l-.464 3.422h23.342zm-1.916 10.266l.365-2.661h-16.458l.114-.837h16.079l.789-5.754h-21.565l-.344 2.535h16.057l-.111.811h-16.056l-.801 5.906h21.931zm-204.217 18.764l1.355-10.95h-21.54l-1.34 10.95h21.525zm-4.92-4.259h-10.638l.293-2.382h10.64l-.294 2.382zm-4.518 16.73l.744-6.032h8.783l.565-4.563H385.38l-.558 4.563h8.783l-.74 6.032h5.717zm28.598-.253l2.946-23.549h-4.435l-1.088 8.72h-3.546l-.54 4.335h3.545l-1.31 10.494h4.428zm5.515 0l2.955-23.549h-4.536l-2.948 23.549h4.53zm-11.114-.76l.642-5.146c-2.598-1.901-2.991-5.045-2.218-11.255l.167-1.343h3.344l.534-4.284H412.75l-.531 4.284h3.369l-.167 1.343c-.771 6.21-1.946 9.354-5.017 11.255l-.638 5.146c2.77-1.116 4.932-2.84 6.576-5.476.988 2.636 2.748 4.36 5.24 5.476zm30.416-17.795l.465-3.676h-4.434l.23-1.825h-5.828l-.23 1.825h-4.434l-.462 3.676h14.693zm5.771 12.395l.896-7.047h2.634l.584-4.588h-2.635l.731-5.754h-5.575l-2.204 17.39h5.57zm-10.826-2.864c1.95 0 3.893-1.952 4.2-4.385.309-2.434-1.138-4.411-3.088-4.411h-6.941c-1.951 0-3.897 1.977-4.202 4.41-.306 2.434 1.145 4.386 3.094 4.386h6.937zm-1.096-3.549h-3.748c-.405 0-.626-.456-.578-.836.06-.482.387-.862.792-.862h3.748c.405 0 .61.38.55.862-.048.38-.36.836-.764.836zm11.645 12.573l.529-4.157h-15.565l.46-3.65h-5.645l-.982 7.807h21.203zm20.027-9.556c3.747 0 6.775-3.068 7.261-6.845.494-3.827-1.747-6.894-5.497-6.894h-9.3c-3.726 0-6.752 3.067-7.24 6.894-.48 3.777 1.762 6.845 5.484 6.845h9.292zm-1.061-4.36h-6.003c-1.392 0-2.193-1.065-2.012-2.485.181-1.419 1.254-2.484 2.648-2.484h6.004c1.393 0 2.194 1.065 2.012 2.484-.183 1.42-1.257 2.485-2.65 2.485zm6.891 13.536l.598-4.639h-23.286l-.59 4.639h23.278zm25.818-8.796l.523-4.005h-16.233l.164-1.268h15.981l1.138-8.72H489.2l-.497 3.853h15.986l-.152 1.166h-15.985l-1.158 8.974h21.773zm-.515 8.796l.589-4.512h-8.783l.458-3.524h-5.721l-.457 3.524h-8.782l-.582 4.512h23.278zm8.401-6.185l1.184-7.098 1.295-9.886h-5.321l-1.293 9.886-.674 7.098h4.81zm-.86 6.565l.624-4.766h-4.808l-.623 4.766h4.807z" transform="translate(-121 -112) translate(121 112)"/>
            </g>
        </g>
    </g>
</svg>
