<svg xmlns="http://www.w3.org/2000/svg" width="204" height="69" viewBox="0 0 204 69">
    <g fill="none">
        <path fill="#EAEAEA" d="M194.687 1.557V44.68h8.735v11.092h-8.735v12.196h-13.195V55.772h-33.009V44.174c5.793-11 13.01-22.597 26.619-42.617h19.585zm-12.919 9.941h-.276c-9.608 13.853-15.63 23.288-20.918 33.182v.369h21.194v-33.55zM114.325.038c16.734 0 27.032 13.117 27.032 34.564l-.004-.567h-14.112c-.126-14.593-4.786-22.682-12.655-22.856l-.261-.003c-7.981 0-12.831 8.15-12.962 22.86H87.25C87.445 12.95 97.75.038 114.325.038z"/>
        <path fill="#2B82F8" d="M4.513 67.968v-7.842h8.096v-3.3H4.513v-5.343h8.868v-3.438H.347v19.923h4.166zm14.33 0l1.517-4.832h6.992l1.517 4.832h4.428l-6.924-19.923h-4.896l-6.91 19.923h4.276zm7.613-7.953h-5.2l2.552-8.16h.096l2.552 8.16zM44.123 68.3c4.883 0 8.29-2.802 8.758-7.248h-4.055c-.44 2.36-2.22 3.81-4.689 3.81-3.186 0-5.186-2.623-5.186-6.875 0-4.198 2.028-6.835 5.172-6.835 2.428 0 4.304 1.602 4.69 4.046h4.055c-.318-4.46-3.959-7.497-8.745-7.497-5.765 0-9.42 3.88-9.42 10.3 0 6.433 3.628 10.3 9.42 10.3zm15.489-.331V48.045h-4.165v19.923h4.165zm16.178 0v-3.452h-8.703V48.045h-4.165v19.923H75.79zm6.634 0V48.045h-4.165v19.923h4.165zm12.234 0V51.483h5.765v-3.438H84.74v3.438h5.751v16.485h4.166zm12.233 0V48.045h-4.165v19.923h4.165zm16.495 0v-3.452h-9.02v-5.025h8.51v-3.204h-8.51v-4.804h9.02v-3.438h-13.185v19.923h13.185zm10.275.331c4.98 0 8.027-2.457 8.027-6.35 0-3.024-1.834-4.723-6.04-5.565l-2.11-.428c-2.345-.47-3.31-1.229-3.31-2.458 0-1.463 1.378-2.43 3.433-2.43 2.097 0 3.573 1.022 3.71 2.72h3.931c-.069-3.658-2.993-6.088-7.64-6.088-4.428 0-7.6 2.416-7.6 6.06 0 2.97 1.945 4.875 5.917 5.662l2.096.414c2.497.51 3.434 1.256 3.434 2.568 0 1.463-1.517 2.54-3.737 2.54-2.262 0-3.945-.994-4.207-2.664h-3.93c.124 3.755 3.282 6.02 8.026 6.02z"/>
    </g>
</svg>
