<svg xmlns="http://www.w3.org/2000/svg" width="320" height="321" viewBox="0 0 320 321">
    <g fill="#ADA189" opacity=".4">
        <path d="M161.24 35.088L164.775 0l11.473 1.24c3.804.389 6.586 1.468 8.347 3.238 1.819 1.956 2.621 4.648 2.17 7.28-.143 1.565-.791 3.04-1.847 4.205-1.122 1.179-2.54 2.035-4.106 2.48 1.752.648 3.228 1.879 4.18 3.486.946 1.661 1.316 3.588 1.055 5.482-.112 2.807-1.478 5.416-3.721 7.107-2.225 1.587-5.197 2.191-8.918 1.81l-12.168-1.24zm6.202-15.938l-1.24 12.627 7.64.781c1.836.295 3.715-.117 5.259-1.153 1.4-1.05 2.258-2.669 2.344-4.416.438-4.225-1.629-6.573-6.202-7.045l-7.801-.794zm.384-3.72l7.058.694c1.722.261 3.48-.1 4.961-1.017 1.325-.893 2.163-2.35 2.27-3.944.307-1.578-.153-3.207-1.24-4.39-1.412-1.134-3.153-1.778-4.962-1.837l-6.846-.707-1.24 11.2zM214.115 37.693l-13.817-5.259-6.388 7.442-4.477-1.712 25.14-28.167 3.796 1.451.087 37.755-4.465-1.687.124-9.823zm-11.163-8.31l11.163 4.254.248-17.55-11.411 13.296zM244.912 68.329L241.191 65.526 243.2 33.129 226.977 54.921 223.256 52.118 244.341 23.839 248.062 26.642 246.016 59.175 262.338 37.284 266.059 40.05zM271.194 72.025L290.791 68.304 294.065 72.447 269.147 76.589 258.828 84.75 255.938 81.104 266.257 72.93 276.056 49.674 279.355 53.854zM284.453 111.132l-6.202-13.433-9.773.844-1.997-4.366 37.668-2.48 1.7 3.72-26.42 26.99-1.984-4.342 7.008-6.933zm-2.134-13.743l4.962 10.89 12.477-12.403-17.439 1.513zM284.912 154.567L284.192 149.941 308.366 128.273 281.55 132.391 280.843 127.777 315.709 122.431 316.416 127.045 292.081 148.837 319.07 144.695 319.764 149.271zM309.048 207.702L311.529 196.639 280.806 189.767 281.811 185.253 312.558 192.124 315.039 181.085 318.76 181.916 312.819 208.533zM282.79 224.595l3.722-7.442-12.714-6.462 2.109-4.167 31.454 15.95-5.283 10.419c-1.787 3.547-3.982 5.854-6.562 6.946-2.79 1.079-5.922.818-8.496-.707-1.854-.888-3.37-2.355-4.316-4.18-.93-1.882-1.284-3.996-1.017-6.078l-17.104.62-.26-.136 2.257-4.453 16.21-.31zm7.145-5.668l-3.237 6.375c-.998 1.734-1.312 3.777-.88 5.73.454 1.77 1.685 3.238 3.348 3.994 1.624.961 3.59 1.156 5.37.534 1.849-.85 3.32-2.352 4.13-4.217l3.213-6.35-11.944-6.066zM259.907 259.845L269.829 248.273 260.465 240.112 248.868 253.544 245.991 251.064 260.626 234.096 287.33 257.141 272.868 273.922 269.991 271.442 281.439 258.183 272.831 250.741 262.909 262.313zM234.059 280.422L246.462 271.467 239.144 261.333 224.744 271.74 222.524 268.651 240.62 255.504 261.284 284.031 243.312 297.017 241.079 293.929 255.281 283.671 248.633 274.468 236.229 283.411zM177.364 284.428L181.891 283.287 185.898 299.088 203.138 294.71 199.119 278.909 203.634 277.755 212.316 311.95 207.802 313.091 204.081 298.394 186.853 302.772 190.574 317.47 186.047 318.623zM140.664 300.874c.042-3.103.74-6.163 2.046-8.98 1.108-2.378 2.9-4.373 5.147-5.73 3.41-2.023 7.531-2.464 11.291-1.207 3.76 1.258 6.788 4.089 8.294 7.756 1.144 2.798 1.668 5.811 1.538 8.831l-.087 2.48c-.036 3.092-.743 6.14-2.071 8.931-2.24 4.914-7.272 7.945-12.664 7.628-2.652-.03-5.238-.831-7.442-2.307-2.17-1.501-3.835-3.624-4.775-6.09-1.123-2.898-1.618-6-1.451-9.104l.174-2.208zm4.552 2.481c-.141 4.184.59 7.421 2.195 9.712 1.571 2.273 4.17 3.617 6.933 3.584 2.72.197 5.36-.97 7.045-3.113 1.934-2.685 2.955-5.92 2.915-9.228l.087-2.592c.302-3.368-.48-6.745-2.233-9.637-1.594-2.214-4.112-3.579-6.837-3.707-2.724-.128-5.359.995-7.154 3.05-1.72 2.133-2.674 5.237-2.865 9.314l-.086 2.617zM101.78 305.972L112.645 309.222 121.65 279.07 126.09 280.397 117.085 310.549 127.913 313.786 126.834 317.433 100.701 309.619zM79.752 276.862L92.936 284.602 99.262 273.836 83.957 264.831 85.879 261.557 105.203 272.868 87.343 303.281 68.217 292.093 70.14 288.806 85.259 297.674 91.014 287.876 77.829 280.136zM74.555 256.645L62.425 245.147 65.042 242.381 80.62 257.104 56.285 282.691 52.899 279.479zM45.098 231.33c-1.487.747-3.164 1.028-4.813.806-2.4-.504-4.698-1.41-6.797-2.679-.714 1.727-1.63 3.363-2.728 4.875-.744.94-1.684 1.705-2.754 2.245-2.038 1.158-4.47 1.4-6.697.67-2.2-.876-3.963-2.589-4.9-4.763-1.044-1.937-1.315-4.198-.756-6.326.507-1.98 1.871-3.63 3.72-4.502 1.237-.629 2.625-.9 4.007-.782 1.78.238 3.498.815 5.06 1.7l2.865 1.476 4.962-11.163c-2.468-.035-4.907.545-7.095 1.687l-1.786-3.721c3.204-1.74 6.885-2.397 10.493-1.873l3.175-7.194 2.357 4.85-1.464 3.336c1.515.623 2.893 1.538 4.056 2.692 1.193 1.168 2.179 2.531 2.915 4.03 1.482 2.639 1.924 5.735 1.24 8.683-.708 2.643-2.565 4.829-5.06 5.953zm-19.262 1.327c1.389-.694 2.7-2.41 3.931-5.147l-3.063-1.674c-.915-.546-1.932-.897-2.99-1.03-.889-.034-1.771.171-2.554.596-.94.438-1.632 1.276-1.886 2.282-.282 1.08-.145 2.229.385 3.212.486 1.134 1.471 1.977 2.667 2.282 1.194.258 2.442.073 3.51-.52zm19.845-14.35c-1.108-2.173-3.015-3.832-5.321-4.626l-5.408 12.266.868.46c2.977 1.537 5.408 1.839 7.293.905 1.583-.703 2.779-2.062 3.275-3.721.457-1.79.203-3.689-.707-5.296v.012zM21.085 171.163l.757 8.248 14.201-1.24.422 4.663-35.113 3.213-1.054-11.622C0 170.419.57 167.293 2.17 164.96c1.795-2.393 4.587-3.833 7.578-3.907 2.042-.239 4.107.197 5.879 1.24 1.791 1.093 3.216 2.696 4.093 4.602l14.164-9.6h.286l.446 4.961-13.532 8.906zm-3.026 8.682l-.695-7.169c-.071-2-.885-3.901-2.282-5.333-1.338-1.237-3.153-1.822-4.961-1.6-1.882.05-3.647.925-4.825 2.393-1.111 1.704-1.553 3.758-1.24 5.768l.645 7.094 13.358-1.153zM21.743 129.153L19.448 144.273 31.851 146.146 34.505 128.595 38.226 129.153 34.878 151.318 0 146.034 3.324 124.118 7.045 124.688 4.416 142.053 15.653 143.752 17.947 128.645zM29.68 107.039c-1.896 2.657-4.362 4.856-7.218 6.437-2.125 1.044-4.6 1.103-6.772.161-2.514-.99-4.406-3.118-5.098-5.73-.811-3.012-.534-6.214.782-9.042.796-2.085 2.07-3.954 3.72-5.457 1.473-1.346 3.296-2.25 5.26-2.605 1.885-.337 3.828-.122 5.593.62l-1.786 4.317c-1.725-.808-3.72-.808-5.445 0-1.805 1.004-3.171 2.644-3.832 4.601-.828 1.72-1.051 3.67-.633 5.532.432 1.564 1.59 2.825 3.113 3.386 1.332.546 2.843.436 4.081-.298 1.915-1.245 3.573-2.844 4.887-4.713 1.48-1.992 3.21-3.784 5.147-5.333 1.348-1.054 2.931-1.765 4.614-2.072 1.627-.223 3.284.01 4.788.67 2.522.958 4.416 3.089 5.072 5.706.704 3.11.346 6.368-1.017 9.252-.876 2.16-2.194 4.111-3.87 5.73-1.48 1.488-3.343 2.54-5.382 3.04-1.916.445-3.923.267-5.73-.51l1.773-4.328c1.787.829 3.867.731 5.57-.26 1.914-1.19 3.366-2.997 4.117-5.123.879-1.796 1.145-3.83.757-5.792-.41-1.55-1.541-2.806-3.04-3.374-1.405-.664-3.045-.609-4.402.15-1.957 1.379-3.664 3.082-5.048 5.035zM55.975 63.38c2.514 1.83 4.607 4.178 6.14 6.884 1.291 2.28 1.878 4.89 1.687 7.503-.26 2.621-1.272 5.111-2.915 7.17-3.139 4.314-8.569 6.312-13.755 5.06-2.942-.695-5.7-2.015-8.087-3.87l-2.022-1.55c-2.489-1.826-4.557-4.165-6.065-6.86-1.834-3.504-2.09-7.624-.706-11.33 1.384-3.706 4.28-6.648 7.962-8.092 2.486-.888 5.181-1.013 7.74-.36 3.005.765 5.816 2.156 8.248 4.08l1.773 1.365zm-4.614 2.356c-3.307-2.546-6.367-3.828-9.178-3.845-2.764-.044-5.368 1.29-6.946 3.56-1.738 2.105-2.32 4.935-1.55 7.554 1.067 3.129 3.105 5.836 5.817 7.727l2.059 1.575c2.58 2.177 5.785 3.48 9.153 3.72 2.734-.008 5.315-1.266 7.006-3.414 1.691-2.148 2.309-4.951 1.676-7.611-.731-2.642-2.716-5.21-5.94-7.728l-2.097-1.538zM76.465 48.93l-6.561 5.048 8.682 11.324-3.72 2.84-21.47-27.968 9.264-7.12c3.15-2.414 6.123-3.56 8.918-3.435 2.984.235 5.695 1.826 7.355 4.316 1.287 1.602 2.022 3.577 2.096 5.63.046 2.096-.528 4.159-1.65 5.93l15.69 6.821.187.236-3.97 3.039-14.82-6.66zm-8.88 2.034l5.668-4.353c1.645-1.132 2.812-2.833 3.274-4.775.345-1.797-.133-3.654-1.302-5.06-1.047-1.567-2.73-2.592-4.602-2.804-2.034-.038-4.012.673-5.556 1.997l-5.644 4.329 8.161 10.666zM108.341 12.118L97.984 16.744 110.859 45.47 106.667 47.355 93.767 18.605 83.448 23.219 81.86 19.845 106.791 8.682z"/>
    </g>
</svg>
