<svg xmlns="http://www.w3.org/2000/svg" width="164" height="69" viewBox="0 0 164 69">
    <g fill="none">
        <path fill="#EAEAEA" d="M138.044.826c13.747 0 23.032 6.806 23.032 17.218 0 8.293-5.905 13.657-13.567 15.234v.27c9.645.902 15.956 6.626 15.956 15.55 0 11.81-10.232 19.652-25.331 19.652-14.693 0-24.7-7.933-25.285-19.877h12.98c.451 5.319 5.139 8.924 12.305 8.924 6.806 0 11.493-3.786 11.493-9.284.045-6.31-4.597-9.826-12.485-9.826h-7.436v-9.69h7.256c6.806 0 11.223-3.697 11.223-9.015 0-5.319-3.65-8.699-10.141-8.699-6.4 0-10.863 3.426-11.268 9.06H114.29c.676-11.9 10.141-19.517 23.753-19.517zM79.134.781c16.407 0 26.503 12.846 26.503 33.85l-.003-.555H91.797c-.123-14.288-4.69-22.21-12.4-22.384l-.262-.003c-7.825 0-12.58 7.981-12.708 22.387H52.59C52.78 13.428 62.885.782 79.135.782z"/>
        <path fill="#2B82F8" d="M13.238 67.308v-3.38H4.706V47.795H.623v19.512h12.615zm15.347 0v-3.38h-8.843v-4.923h8.343v-3.137h-8.343v-4.705h8.843v-3.367H15.66v19.512h12.926zm7.032 0V47.796h-4.084v19.512h4.084zm10.37.324c4.882 0 7.87-2.407 7.87-6.22 0-2.961-1.798-4.624-5.922-5.449l-2.069-.42c-2.299-.459-3.245-1.203-3.245-2.406 0-1.433 1.352-2.38 3.367-2.38 2.055 0 3.502 1 3.637 2.664h3.854c-.068-3.583-2.935-5.963-7.491-5.963-4.34 0-7.45 2.366-7.45 5.936 0 2.907 1.906 4.773 5.8 5.544l2.055.405c2.448.5 3.367 1.23 3.367 2.515 0 1.434-1.487 2.488-3.664 2.488-2.218 0-3.867-.973-4.124-2.61h-3.854c.122 3.679 3.218 5.896 7.87 5.896zm18.539 0c4.99 0 8.167-2.92 8.167-7.22V47.796h-4.084v12.21c0 2.502-1.473 4.138-4.083 4.138-2.623 0-4.097-1.636-4.097-4.138v-12.21h-4.084v12.616c0 4.3 3.178 7.22 8.18 7.22zm15.496-.324v-7.14h3.272l3.637 7.14h4.625l-4.111-7.748c2.245-.88 3.543-3.043 3.543-5.544 0-3.854-2.57-6.22-7.059-6.22h-7.99v19.512h4.083zm3.515-10.101h-3.515v-6.22h3.475c2.028 0 3.299 1.217 3.299 3.11 0 1.934-1.203 3.11-3.259 3.11zm23.055 10.1v-3.38h-8.844v-4.922h8.343v-3.137h-8.343v-4.705h8.844v-3.367H93.665v19.512h12.927z"/>
    </g>
</svg>
