<svg xmlns="http://www.w3.org/2000/svg" width="193" height="68" viewBox="0 0 193 68">
    <g fill="none">
        <path fill="#EAEAEA" d="M168.617.826c13.927 0 23.122 8.113 23.122 18.93 0 7.978-3.921 12.891-14.919 23.393L163.163 56.22v.27h29.478v10.818H145.36v-9.33l23.032-21.815c8.248-7.933 10.096-11.043 10.096-15.55 0-5.228-4.011-9.195-9.87-9.195-6.491 0-11.404 4.372-11.404 10.637h-12.62c0-12.53 9.916-21.229 24.023-21.229zM110.52.781c16.406 0 26.503 12.846 26.503 33.85l-.003-.555h-13.837c-.124-14.288-4.69-22.21-12.401-22.384l-.262-.003c-7.825 0-12.58 7.981-12.707 22.387H83.975C84.165 13.428 94.269.782 110.519.782z"/>
        <path fill="#2B82F8" d="M13.238 67.308v-3.38H4.706V47.795H.623v19.512h12.615zm11.223.324c5.774 0 9.411-3.867 9.411-10.073 0-6.22-3.637-10.101-9.41-10.101-5.788 0-9.412 3.88-9.412 10.1 0 6.207 3.624 10.074 9.411 10.074zm0-3.407c-3.204 0-5.246-2.583-5.246-6.666 0-4.097 2.055-6.694 5.246-6.694 3.191 0 5.233 2.597 5.233 6.694 0 4.083-2.042 6.666-5.233 6.666zm20.661 3.407c4.787 0 8.127-2.745 8.587-7.099h-3.976c-.433 2.313-2.177 3.732-4.597 3.732-3.124 0-5.084-2.569-5.084-6.733 0-4.111 1.987-6.694 5.07-6.694 2.38 0 4.219 1.569 4.598 3.962h3.975c-.311-4.367-3.88-7.342-8.573-7.342-5.652 0-9.235 3.8-9.235 10.087 0 6.301 3.556 10.087 9.235 10.087zm14.05-.324l1.487-4.733h6.855l1.488 4.733h4.34l-6.788-19.512h-4.8L54.98 67.308h4.191zm7.463-7.789h-5.097l2.501-7.991h.095l2.501 7.991zm17.443 7.789V51.163h5.652v-3.367H74.356v3.367h5.639v16.145h4.083zm11.994 0V47.796h-4.084v19.512h4.084zm12.048.324c5.773 0 9.41-3.867 9.41-10.073 0-6.22-3.637-10.101-9.41-10.101-5.788 0-9.411 3.88-9.411 10.1 0 6.207 3.623 10.074 9.41 10.074zm0-3.407c-3.205 0-5.247-2.583-5.247-6.666 0-4.097 2.055-6.694 5.247-6.694 3.19 0 5.232 2.597 5.232 6.694 0 4.083-2.041 6.666-5.232 6.666zm15.942 3.083V54.53h.121l9.127 12.778h3.38V47.796h-3.907v12.71h-.108l-9.114-12.71h-3.407v19.512h3.908z"/>
    </g>
</svg>
