<svg xmlns="http://www.w3.org/2000/svg" width="188" height="69" viewBox="0 0 188 69">
    <g fill="none">
        <path fill="#EAEAEA" d="M183.328 2.269v10.817h-30.694l-1.578 18.3h.27c2.705-4.373 8.069-7.032 14.65-7.032 12.394 0 21.273 8.924 21.273 21.32 0 13.746-10.231 23.076-25.15 23.076-13.927 0-24.023-8.293-24.384-20.102h12.575c.766 5.634 5.59 9.33 11.854 9.33 7.167 0 12.125-4.913 12.125-11.99 0-6.986-4.958-11.898-12.08-11.898-5.228 0-9.285 2.433-11.493 6.355h-11.854l2.975-38.176h41.511zM102.288.78c16.407 0 26.503 12.846 26.503 33.85l-.003-.555H114.95c-.123-14.288-4.69-22.21-12.4-22.384l-.263-.003c-7.824 0-12.58 7.981-12.707 22.387H75.744C75.935 13.428 86.039.782 102.288.782z"/>
        <path fill="#2B82F8" d="M8.748 67.632c4.882 0 7.87-2.407 7.87-6.22 0-2.961-1.798-4.624-5.922-5.449l-2.07-.42c-2.298-.459-3.244-1.203-3.244-2.406 0-1.433 1.352-2.38 3.366-2.38 2.056 0 3.503 1 3.638 2.664h3.853c-.067-3.583-2.934-5.963-7.49-5.963-4.34 0-7.45 2.366-7.45 5.936 0 2.907 1.906 4.773 5.8 5.544l2.055.405c2.448.5 3.367 1.23 3.367 2.515 0 1.434-1.487 2.488-3.664 2.488-2.218 0-3.868-.973-4.124-2.61H.879c.122 3.679 3.218 5.896 7.87 5.896zm23.285-.324v-3.38H23.19v-4.923h8.342v-3.137H23.19v-4.705h8.843v-3.367H19.106v19.512h12.927zm7.031 0v-7.14h3.272l3.638 7.14h4.624l-4.11-7.748c2.244-.88 3.542-3.043 3.542-5.544 0-3.854-2.57-6.22-7.058-6.22H34.98v19.512h4.084zm3.516-10.101h-3.516v-6.22h3.475c2.028 0 3.3 1.217 3.3 3.11 0 1.934-1.204 3.11-3.26 3.11zm20.363 10.1l6.558-19.511h-4.448L60.59 63.102h-.094l-4.462-15.306h-4.57l6.557 19.512h4.922zm12.63 0V47.797h-4.084v19.512h4.083zm11.871.325c4.787 0 8.127-2.745 8.587-7.099h-3.976c-.432 2.313-2.177 3.732-4.597 3.732-3.124 0-5.084-2.569-5.084-6.733 0-4.111 1.987-6.694 5.07-6.694 2.38 0 4.22 1.569 4.598 3.962h3.975c-.31-4.367-3.88-7.342-8.573-7.342-5.652 0-9.235 3.8-9.235 10.087 0 6.301 3.556 10.087 9.235 10.087zm24.028-.324v-3.38h-8.843v-4.923h8.343v-3.137h-8.343v-4.705h8.843v-3.367H98.546v19.512h12.926zm10.074.324c4.881 0 7.87-2.407 7.87-6.22 0-2.961-1.799-4.624-5.923-5.449l-2.069-.42c-2.298-.459-3.245-1.203-3.245-2.406 0-1.433 1.352-2.38 3.367-2.38 2.055 0 3.502 1 3.637 2.664h3.854c-.068-3.583-2.934-5.963-7.491-5.963-4.34 0-7.45 2.366-7.45 5.936 0 2.907 1.906 4.773 5.8 5.544l2.056.405c2.447.5 3.367 1.23 3.367 2.515 0 1.434-1.488 2.488-3.665 2.488-2.217 0-3.867-.973-4.124-2.61h-3.854c.122 3.679 3.219 5.896 7.87 5.896z"/>
    </g>
</svg>
