<svg xmlns="http://www.w3.org/2000/svg" width="216" height="69" viewBox="0 0 216 69">
    <g fill="none">
        <path fill="#EAEAEA" d="M190.099.781c12.62 0 22.355 7.392 24.158 18.12h-13.431c-1.533-4.643-5.409-7.348-10.773-7.348-9.465 0-14.152 9.15-14.107 23.393h.27c2.524-6.04 8.925-10.457 17.714-10.457 12.575 0 21.184 8.97 21.184 21.184 0 13.477-10.547 23.077-25.06 23.077-15.55 0-27.134-10.998-27.134-33.444C162.92 13.762 173.197.781 190.1.781zm-.09 33.76c-6.897 0-12.035 4.822-12.035 11.448 0 6.715 5.229 11.944 11.9 11.944 6.67 0 11.943-5.139 11.988-11.674 0-6.85-5.048-11.719-11.854-11.719zM128.98.78c16.406 0 26.502 12.846 26.502 33.85l-.003-.555h-13.837c-.123-14.288-4.69-22.21-12.4-22.384l-.262-.003c-7.825 0-12.58 7.981-12.708 22.387h-13.837C102.627 13.428 112.731.782 128.981.782z"/>
        <path fill="#2B82F8" d="M8.803 67.632c4.99 0 8.167-2.92 8.167-7.22V47.796h-4.083v12.21c0 2.502-1.474 4.138-4.084 4.138-2.623 0-4.097-1.636-4.097-4.138v-12.21H.623v12.616c0 4.3 3.177 7.22 8.18 7.22zm15.32-.324V54.53h.122l9.127 12.778h3.38V47.796h-3.907v12.71h-.109l-9.113-12.71h-3.408v19.512h3.908zm19.958 0V47.796h-4.083v19.512h4.083zm11.994 0V51.163h5.652v-3.367H46.353v3.367h5.638v16.145h4.084zm17.47 0v-6.153h3.65c4.111 0 6.964-2.677 6.964-6.68 0-4.015-2.758-6.679-6.76-6.679H69.46v19.512h4.084zm2.758-9.344h-2.758v-6.936h2.772c2.339 0 3.691 1.244 3.691 3.461 0 2.231-1.366 3.475-3.705 3.475zm22.879 9.344v-3.38H90.65V47.795h-4.084v19.512h12.616zm5.368 0l1.487-4.733h6.856l1.487 4.733h4.34l-6.787-19.512h-4.8l-6.775 19.512h4.192zm7.464-7.789h-5.098l2.502-7.991h.094l2.502 7.991zm12.602 7.789V54.53h.122l9.127 12.778h3.38V47.796h-3.908v12.71h-.108l-9.113-12.71h-3.408v19.512h3.908zm23 .324c4.882 0 7.87-2.407 7.87-6.22 0-2.961-1.798-4.624-5.923-5.449l-2.068-.42c-2.3-.459-3.246-1.203-3.246-2.406 0-1.433 1.353-2.38 3.367-2.38 2.056 0 3.502 1 3.638 2.664h3.853c-.067-3.583-2.934-5.963-7.49-5.963-4.341 0-7.451 2.366-7.451 5.936 0 2.907 1.906 4.773 5.8 5.544l2.056.405c2.447.5 3.367 1.23 3.367 2.515 0 1.434-1.488 2.488-3.665 2.488-2.217 0-3.867-.973-4.124-2.61h-3.853c.121 3.679 3.218 5.896 7.87 5.896z"/>
    </g>
</svg>
