<svg xmlns="http://www.w3.org/2000/svg" width="128" height="69" viewBox="0 0 128 69">
    <g fill="none">
        <path fill="#EAEAEA" d="M127.243 1.707v66.517H113.46V14.475h-.277L96.22 26V13.646l17.194-11.94h13.829zM61.187.185c16.779 0 27.104 13.138 27.104 34.619l-.003-.567h-14.15c-.127-14.616-4.8-22.718-12.69-22.893l-.261-.003c-8.003 0-12.866 8.163-12.997 22.896H34.04C34.234 13.12 44.567.186 61.187.186z"/>
        <path fill="#2B82F8" d="M12.128 68.224l6.707-19.955h-4.55L9.722 63.923h-.097L5.06 48.269H.387l6.707 19.955h5.034zm11.755 0l1.52-4.84h7.012l1.521 4.84h4.44l-6.943-19.955h-4.91l-6.927 19.955h4.287zm7.633-7.966h-5.213l2.558-8.173h.097l2.558 8.173zm21.795 7.966v-3.457h-8.726V48.269h-4.177v19.955h12.903zm10.841.332c5.103 0 8.353-2.987 8.353-7.385V48.269H68.33v12.487c0 2.559-1.508 4.232-4.177 4.232-2.682 0-4.19-1.673-4.19-4.232V48.27h-4.176V61.17c0 4.398 3.25 7.385 8.366 7.385zm24.893-.332v-3.457H80v-5.034h8.533v-3.209H80v-4.812h9.045v-3.443h-13.22v19.955h13.22z"/>
    </g>
</svg>
