<svg xmlns="http://www.w3.org/2000/svg" width="18" height="23" viewBox="0 0 18 23">
    <g fill="none" fill-rule="evenodd">
        <g>
            <g>
                <g>
                    <g>
                        <path d="M0 0L18 0 18 23 0 23z" transform="translate(-556 -1433) translate(430 450) translate(110 715) translate(16 268)"/>
                        <path fill="#999" fill-rule="nonzero" d="M9.5 19C5.358 19 2 15.642 2 11.5 2 7.358 5.358 4 9.5 4c4.142 0 7.5 3.358 7.5 7.5 0 4.142-3.358 7.5-7.5 7.5zm0-1.5c3.314 0 6-2.686 6-6s-2.686-6-6-6-6 2.686-6 6 2.686 6 6 6zm-.75-3.75h1.5v1.5h-1.5v-1.5zm0-6h1.5v4.5h-1.5v-4.5z" transform="translate(-556 -1433) translate(430 450) translate(110 715) translate(16 268)"/>
                    </g>
                </g>
            </g>
        </g>
    </g>
</svg>
