<svg xmlns="http://www.w3.org/2000/svg" xmlns:xlink="http://www.w3.org/1999/xlink" width="587" height="121" viewBox="0 0 587 121">
    <defs>
        <linearGradient id="meywzoaowb" x1="6.481%" x2="91.296%" y1="46.488%" y2="53.894%">
            <stop offset="0%" stop-color="#6EE0F1"/>
            <stop offset="100%" stop-color="#D5E9B3"/>
        </linearGradient>
        <path id="8gt88c4dba" d="M61.837 26.863c3.5-1.4 11.15-4.6 17.3-7.5 6.35 2.55 14.3 5.4 17.85 6.65.95-1.2 1.9-3.15 2.3-4.85-2.896-1.138-7.124-2.728-11.372-4.31l-1.274-.475-4.354-1.616c.05-1.15.05-2.6.05-4.05H83.8c6.127-.007 11.632-.053 14.088-.1.15-1.45.15-3.75 0-5.25-3.55-.1-9.45-.1-15.55-.15.05-1.8 0-3.7-.1-5.1-1.4-.15-4.3-.15-6.1 0-.1 1.4-.15 3.3-.1 5.1-6.8.05-13 .1-15.5.15-.2 1.45-.2 3.65 0 5.25 2.144.047 7.76.094 14.099.1h1.401c0 1.4 0 2.9.05 4-5.7 2.5-12.6 5.5-16.75 7.4.35 1.55 1.55 3.8 2.5 4.75zm20.35 19.6c.043-.87.058-2.415.062-4.226v-2.024c-.003-1.949-.011-4.019-.011-5.8l1.82-.001c7.677-.007 14.486-.057 16.48-.15.15-1.65.15-3.65 0-5.1-2.527-.05-11.052-.1-20.057-.112l-1.127-.002h-3.952c-7.117.003-13.885.035-17.565.115-.15 1.55-.15 3.6 0 5.1 2.484.092 9.074.141 16.42.149h1.93c-.05 4.3-.05 10.15.05 12.05 1.6.1 4.6.1 5.95 0zm61.87-20.1c.062-2.105.09-5.884.093-9.957v-2.468c-.006-4.963-.044-9.95-.094-12.575-1.4-.2-4.65-.2-5.8 0-.05 1.65-.1 5.1-.1 8.95h-1.867c-1.87.003-3.67.012-4.683.05-.15 1.45-.15 3.85 0 5.35 1.032.036 2.796.073 4.614.09l.78.006c.39.002.777.004 1.156.004v.906c.007 4.056.054 7.781.1 9.643 1.45.15 4.55.2 5.8 0zm-27.3-1.4c9.1 0 13.15-4.15 13.15-11.55 0-7.35-4.05-11.55-13.15-11.55-9.1 0-13.15 4.2-13.15 11.55 0 7.4 4.05 11.55 13.15 11.55zm0-5c-5.3 0-7.45-2.5-7.45-6.55s2.15-6.55 7.45-6.55c5.25 0 7.45 2.5 7.45 6.55s-2.2 6.55-7.45 6.55zm27.3 26.05c.08-1.468.148-5.032.151-8.744v-.892c-.005-2.829-.048-5.653-.152-7.615-2.182-.113-9.126-.165-16.433-.169h-1.648c-8.253.004-16.548.067-18.619.17-.2 1.45-.2 3.7 0 5.2 1.16.045 3.574.063 6.639.066h2.184c2.572-.003 5.453-.012 8.362-.024l1.541-.006 1.027-.004c3.585-.014 7.09-.028 9.992-.032h1.205c0 3.25-.1 9.3 0 12.05 1.4.15 4.55.15 5.75 0zm42.368-.3c.047-2.89.093-11.907.1-21.136v-1.51-.505c2 .05 3.95.05 5.75-.05.1-.75.1-1.7 0-2.3-1.8-.05-3.75-.05-5.75 0V18.26c-.008-7.424-.054-14.017-.1-16.547-.7-.2-1.8-.2-2.6 0-.07 2.977-.108 11.615-.112 20.536v3.116c.004 8.915.041 17.49.112 20.348.85.15 1.95.15 2.6 0zm-11.35-18.35c.2-5.55.2-17.2-.1-23.85-2.652-.118-7.122-.17-11.605-.175h-1.75c-4.456.006-8.689.054-10.895.124-.15.65-.15 1.65 0 2.3 1.71.019 4.628.03 7.807.033h2.906c4.713-.005 9.373-.03 11.087-.082.016 1.337.021 3.396.022 5.767V14.12l-.004 2.209-.002 1.116c-.005 3.166-.013 6.317-.015 8.72l-.001 1.198c.65.2 1.95.2 2.55 0zm5.15 14.25c.15-.75.15-1.5 0-2.3-2.127-.074-6.7-.093-11.788-.099h-1.4l-3.788-.001h-.474c.032-2.218.054-4.607.065-7.011l.007-1.604.003-1.598v-1.582c-.004-3.405-.029-6.629-.075-9.206-.75-.2-1.85-.2-2.65 0-.052 2.871-.09 6.558-.094 10.396v1.542c.004 3.094.032 6.228.094 9.063-4.85 0-9.2.05-11.45.1-.2.7-.2 1.55 0 2.3 2.833.07 8.932.108 15.11.112h1.853c6.163-.004 12.087-.041 14.587-.113zm64.037 4.45c.07-2.752.107-11.082.112-19.907v-4.327c-.005-8.851-.042-17.369-.112-20.466-1.4-.2-4.7-.25-5.9 0-.069 2.774-.106 11.277-.111 20.202v4.37c.005 8.92.042 17.4.112 20.128 1.45.15 4.65.15 5.9 0zm-14-3.55c.144-2.527.218-10.054.225-17.993v-2.33l-.001-1.167c-.013-7.572-.087-14.909-.224-18.06-2.098-.137-6.662-.201-11.39-.207h-1.092c-5.287.004-10.557.08-12.618.207-.121 3.186-.207 10.976-.223 18.942l-.002 1.328c-.009 7.972.055 15.874.225 19.28 4.85.35 21 .3 25.1 0zm-11.968-5.126h-.989c-2.472-.003-4.91-.028-6.293-.075-.07-3.58-.096-8.612-.094-13.678l.001-1.52c.008-5.312.045-10.508.093-13.952 4.2-.1 9.8-.15 13.35 0 .076 3.775.113 9.038.113 14.37l-.001 1.777c-.008 4.737-.045 9.403-.111 13.003-1.243.047-3.605.072-6.07.075zm71.687 8.675c.05-3 .088-12.612.094-22.256v-5c-.004-7.81-.032-14.862-.094-17.444-1.2-.25-4.45-.25-5.6 0-.03 1.426-.043 4.698-.047 8.849v.814l-.001.415v1.273l-.001.433v5.466h-4.95l-.001-.965v-.956c-.008-6.813-.054-12.746-.1-15.078-1.2-.25-4.45-.25-5.6 0-.076 2.834-.127 12.669-.131 22.422v3.037c.004 8.25.044 15.902.131 18.54 1.45.15 4.5.15 5.6 0 .046-2.686.091-10.598.1-19.09v-1.001-1.508c1.7.05 3.45.05 4.95 0l.001 6.932V32.842l.001.465v.918l.001.452.001.89c.005 4.843.017 8.759.046 10.495 1.45.1 4.5.2 5.6 0zm-19.65-3.55c.15-1.45.15-3.7 0-5.2-1.158-.046-3.895-.07-6.783-.074h-1.373c-2.899.003-5.723.028-7.044.075.036-2.017.046-5.743.05-8.81v-.995-2.145c2.4.05 10.15.15 13.15 0 .25-5.8.3-16.65 0-22.4-1.708-.094-5.213-.144-8.777-.15h-1.456c-3.547.006-6.916.056-8.367.15-.2 1.45-.25 3.7 0 5.2 3.928.054 5.356.079 6.978.082h.84c1.176-.003 2.637-.014 5.182-.032-.038 2.115-.047 6.242-.05 9.4v2.5c-.89-.019-2.357-.03-4.052-.033h-1.309c-2.682.003-5.684.028-7.839.083-.25 5.75-.3 16.55 0 22.35 1.79.085 5.274.125 8.926.13h1.912c4.3-.005 8.462-.056 10.012-.13zm63.319 3.2c.048-2.876.085-11.785.093-20.932v-1.248l.001-.625v-3.72c-.004-7.775-.031-14.844-.094-17.475-.7-.2-1.8-.2-2.6 0-.07 2.977-.108 11.615-.112 20.536v3.116c.004 8.915.041 17.49.112 20.348.85.15 1.95.15 2.6 0zm-23-17.4c9.95 0 13.8-4.75 13.8-13.2s-3.85-13.2-13.8-13.2c-9.95 0-13.8 4.75-13.8 13.2s3.85 13.2 13.8 13.2zm0-2.4c-8.3 0-11.1-3.9-11.1-10.8s2.8-10.8 11.1-10.8c8.35 0 11.1 3.9 11.1 10.8s-2.75 10.8-11.1 10.8zm16.45 15.7c.15-.75.15-1.5 0-2.3-2.623-.071-8.84-.108-15.304-.112h-1.88c-6.481.004-12.885.041-15.866.112-.2.7-.2 1.55 0 2.3 2.98.072 9.385.11 15.865.113h1.88c6.465-.004 12.682-.041 15.305-.113zm61.887 4.1c.05-2.942.087-12.193.094-21.556l.001-1.872v-1.865-1.845c-.006-7.531-.034-14.3-.094-16.862-.7-.2-1.8-.2-2.6 0-.07 2.908-.107 11.216-.112 19.914v4.359c.005 8.69.042 16.935.111 19.727.85.15 1.95.15 2.6 0zm-26.05-2.65c8.95 0 13.15-4.8 13.15-20.3s-4.2-20.3-13.15-20.3-13.2 4.8-13.2 20.3 4.25 20.3 13.2 20.3zm0-2.4c-7.1 0-10.5-3.9-10.5-17.9 0-14 3.4-17.9 10.5-17.9 7.3 0 10.45 3.9 10.45 17.9 0 14-3.15 17.9-10.45 17.9zm69.02 5.05c.05-2.05.05-7.25.1-13.4 2 .05 3.95.05 5.75-.05.1-.75.1-1.7 0-2.3-1.8-.05-3.75-.05-5.75-.05v-15.1c2 .05 3.95.05 5.75-.05.1-.75.1-1.7 0-2.3-1.8-.05-3.75-.05-5.75-.05-.05-4.85-.05-8.85-.1-10.7-.7-.2-1.8-.2-2.6 0-.068 2.839-.105 10.823-.112 19.294v1.242l-.001.623V26.604c.008 8.46.045 16.383.112 19.108.85.15 1.95.15 2.6 0zm-24-2.65c8.55 0 12.55-4.8 12.55-20.3s-4-20.3-12.55-20.3-12.6 4.8-12.6 20.3 4.05 20.3 12.6 20.3zm0-2.4c-6.7 0-9.9-3.9-9.9-17.9 0-14 3.2-17.9 9.9-17.9 6.9 0 9.85 3.9 9.85 17.9 0 14-2.95 17.9-9.85 17.9zm71.468 5.05c.048-2.876.085-11.785.093-20.932v-1.248l.001-.625v-3.72c-.004-7.775-.031-14.844-.094-17.475-.7-.2-1.8-.2-2.6 0-.07 2.977-.108 11.615-.112 20.536v3.116c.004 8.915.041 17.49.112 20.348.85.15 1.95.15 2.6 0zm-16-3.35c.116-2.057.173-7.468.177-13.665V26.99c0-.766-.002-1.54-.004-2.317l-.003-1.168-.005-1.17-.003-.585-.006-1.166c-.043-7.37-.15-14.334-.306-16.971-5.7-.25-19.05-.2-23.25 0-.15.6-.15 1.65 0 2.3 1.872.045 5.604.07 9.446.074h2.503c3.806-.005 7.34-.03 8.851-.075.011.812.017 2.803.02 5.468v.819l.001.423v1.324l.001.457v5.438l-.001.52v1.052l-.001.529v1.063l-.016 14.703v.76l-.002 1.054v.944l-.001.289-.001 1.607c.65.2 1.95.2 2.6 0zm59.419-24.5c.1-.65.1-1.6 0-2.3h-32.1v-4.4h31.6c.2-2.2.2-7.25 0-9.1-2.231-.057-6.866-.085-12.07-.09h-2.533c-7.688.005-15.946.057-19.297.14-.2.5-.2 1.7 0 2.3h31.5v4.35h-31.6c-.25 1.95-.15 6.65 0 9.1 6.15.25 29.05.2 34.5 0zm-19.358 6.829l1.693-.002c8.183-.011 16.314-.05 21.415-.076.15-.7.15-1.65 0-2.3-4.75-.073-12.125-.11-19.724-.113h-1.691c-7.619.003-15.282.04-20.585.113-.15.65-.15 1.6 0 2.3 4.125.056 9.677.077 15.526.079h1.678l1.688-.001zm20.858 20.921c.15-.7.15-1.6 0-2.3h-34.05v-4.5h32.9c.2-2 .2-7.15 0-9.35-3.5-.072-9.844-.11-16.431-.112h-1.415c-6.609.003-13.277.04-17.404.112-.2.5-.2 1.7 0 2.4h32.8v4.45h-32.9c-.25 2.85-.15 6.8 0 9.3 2.472.123 8.5.187 14.977.203l1.026.002 1.03.002h2.58c7.887-.008 15.353-.083 16.887-.207zM48.54 120.19c.12-3.543.184-14.302.191-25.716l.001-1.688v-.564c2.688.065 4.8 0 6.272-.127.192-1.92.192-5.184 0-7.04-1.307-.05-2.93-.062-4.746-.064H48.732V83.367c-.007-9.127-.071-17.13-.192-20.393-1.792-.257-6.016-.32-7.488 0-.092 3.686-.155 15.276-.167 27.168l-.001 1.487v5.184c.007 10.515.058 20.13.168 23.377 1.856.191 5.888.191 7.488 0zm-13.248-4.543c.256-1.857.256-4.737 0-6.657-5.888-.127-21.504-.127-26.432 0 0-3.84.064-9.407.064-15.295 2.804.028 6.273.044 9.718.047h2.205c3.403-.003 6.635-.019 9.005-.047.192-1.92.192-4.864 0-6.784l-1.115-.001c-2.719-.004-6.223-.019-9.773-.025l-1.521-.002H15.178c-2.241 0-4.392.008-6.254.028v-1.27c-.009-5.468-.064-10.511-.064-13.898 1.855.058 5.768.09 9.92.095h2.18c4.18-.005 8.284-.037 10.492-.095.256-1.92.256-4.992 0-6.72-2.612-.122-8.18-.186-13.965-.192h-1.864c-5.8.006-11.527.07-14.443.191-.162 3.654-.258 14.656-.264 25.6v2.007c.004 10.018.086 19.603.264 23.017 3.211.148 9.392.214 15.728.217h1.312c7-.006 13.951-.086 17.072-.216zm73.56-22.657c.192-6.271.128-23.423 0-30.015-1.792-.257-5.952-.257-7.424 0-.09 2.449-.137 7.894-.143 13.592v2.449c.006 5.713.053 11.286.143 13.974 1.856.193 5.824.257 7.424 0zM74.42 91.263c12.224 0 17.344-5.056 17.344-13.825 0-8.704-5.12-13.824-17.344-13.824s-17.344 5.12-17.344 13.825c0 8.768 5.12 13.824 17.344 13.824zm0-6.4c-7.104 0-9.92-2.689-9.92-7.424 0-4.736 2.816-7.424 9.92-7.424 7.04 0 9.92 2.688 9.92 7.424 0 4.736-2.88 7.424-9.92 7.424zm34.432 35.263c.256-5.632.256-18.175 0-24.064-1.855-.088-10.697-.136-20.248-.143h-5.015c-9.608.007-18.832.055-21.393.144-.192 6.847-.32 16.96 0 24.063 2.885.209 11.918.306 21.34.313h1.848c10.271-.006 20.559-.119 23.468-.313zm-24.596-6.15H82.658l-1.053-.001c-5.577-.007-10.52-.043-12.049-.12-.192-3.2-.128-8.577 0-11.392 2.462-.069 10.221-.119 17.549-.122h1.123c5.964.002 11.44.037 13.264.122.128 3.008.128 8.64 0 11.392-1.905.068-9.744.118-17.236.12zm83.18-20.474c.064-2.623.112-8.992.12-15.335l.001-1.227v-1.22c-.002-5.465-.037-10.544-.121-12.745-1.536-.32-5.632-.32-7.104 0-.064 1.663-.064 5.952-.128 10.815h-6.848c0-4.544-.064-8.576-.128-10.496-1.536-.255-5.568-.32-7.104 0-.09 1.954-.138 7.495-.143 13.358v2.28c.005 5.892.053 11.688.143 14.123 1.856.191 5.696.191 7.104 0 .064-2.24.128-7.233.128-12.609 2.112.064 4.48.064 6.848 0v.951c.007 5.207.068 9.993.128 12.105 1.856.129 5.696.257 7.104 0zm-28.032-2.047c.32-6.912.256-19.712-.192-27.008-2.606-.15-7.05-.216-11.551-.224h-1.84c-4.484.008-8.784.07-11.121.16-.192 1.856-.192 4.672 0 6.656 4.736.064 13.568.064 17.28-.064v5.568c-1.098-.023-2.234-.04-3.38-.05l-.983-.01c-.82-.005-1.64-.009-2.449-.01h-.964c-3.831.003-7.302.057-9.184.133-.256 1.857-.256 4.737 0 6.72 1.91.07 5.048.102 8.438.106h1.62l1.09-.002c2.002-.006 4.002-.02 5.812-.04v8.064c1.792.257 5.632.257 7.424 0zm28.032 28.671c.256-7.04.192-17.023 0-23.616-1.856-.128-4.736-.128-7.36 0v5.313c-4.102-.03-9.38-.045-14.754-.048h-3.227c-5.368.003-10.615.018-14.659.047V96.51c-1.28-.128-5.824-.192-7.296 0-.15 2.048-.23 5.939-.24 10.171v1.6c.01 4.295.09 8.743.24 11.845 3.325.21 12.442.308 21.882.313h1.934c10.104-.008 20.152-.12 23.48-.313zm-21.723-6.176h-3.15c-6.097-.005-12.063-.037-15.127-.096v-5.76c2.598.02 5.682.027 8.981.029h3.019l4.128-.005 2.079-.003c4.5-.007 8.944-.017 12.733-.02h1.7v5.76c-2.593.058-8.304.09-14.363.095zm30.579-31.84c3.146-.818 8.934-2.48 14.881-4.317l1.083-.336c2.527-.788 5.055-1.6 7.396-2.386 2.23.708 4.647 1.45 7.078 2.18l1.122.335c5.983 1.782 11.892 3.44 15.16 4.269.96-1.537 1.92-4.353 2.112-6.209-3.74-1.144-9.113-2.68-14.478-4.175l-1.461-.406c-1.945-.538-3.869-1.066-5.693-1.563.064-2.367 0-4.8-.128-6.72-1.792-.255-6.336-.191-7.808 0-.128 1.92-.192 4.353-.128 6.72-7.296 2.113-16.064 4.8-21.376 6.465.192 1.728 1.28 4.8 2.24 6.144zm48 38.144c.192-1.663.256-4.032 0-5.696h-40.896v-3.904h39.424c.152-1.307.232-4.217.24-7.193v-.94c-.008-2.974-.088-5.852-.24-7.099l-7.36-.127v-4.353l11.328-.191c.192-1.92.192-4.16 0-5.953-4.045-.062-13.992-.125-24.68-.142l-1.313-.002-1.317-.002h-5.281c-8.552.005-16.773.047-22.065.147-.192 1.855-.192 4.223 0 5.951 2.258.06 5.896.12 10.299.128h1.029v4.48c-2.56 0-5.056.064-7.424.064-.256 1.216-.256 4.097 0 5.825h39.296v3.84h-39.424c-.384 5.248-.256 11.647 0 15.167 3.68.177 13.346.259 23.11.265h2.546c10.584-.009 20.68-.105 22.728-.265zm-16.576-24.96h-16.512v-4.352h16.512v4.353zm74.648 24.513c.064-3.808.112-15.904.12-28.056v-1.458l.001-.729v-2.176-2.157c-.007-9.762-.042-18.566-.121-21.872-.896-.257-2.24-.257-3.264 0-.088 3.709-.136 14.311-.143 25.434v5.817c.007 11.111.055 21.634.143 25.197 1.088.192 2.432.192 3.264 0zm-11.904-.64c.064-3.745.112-15.633.12-27.576l.001-1.434v-2.855-2.12c-.007-9.595-.042-18.25-.121-21.504-.896-.255-2.24-.255-3.264 0-.06 3.214-.119 11.74-.127 21.255l-.001 2.17c-3.2-.064-6.464-.064-9.728 0-.448-19.072-5.248-22.72-13.248-22.72-8.448 0-13.312 4.096-13.312 25.984 0 21.887 4.864 25.983 13.312 25.983s13.312-4.096 13.312-25.983v-.257c3.264.064 6.464.064 9.664 0l.001 7.299v1.649c.007 9.101.03 17.102.127 20.108 1.088.193 2.432.193 3.264 0zm-26.368-5.889c-6.336 0-9.856-3.968-9.856-22.912s3.52-22.912 9.856-22.912 9.856 3.969 9.856 22.913-3.52 22.911-9.856 22.911zm82.632-18.718l1.208-.002 1.809-.003c9.426-.026 18.387-.134 20.703-.285.09-3.622.138-8.982.144-14.266V78.11c-.006-5.24-.053-10.185-.144-13.022-.832-.193-2.368-.193-3.2 0V75.71c-3.676-.058-10.664-.09-17.848-.095h-4.17c-7.142.005-13.877.037-17.086.096v-.527l-.001-2.573c-.003-3.013-.015-5.7-.063-7.525-.704-.192-2.368-.192-3.136 0-.111 2.611-.162 7.006-.168 11.772v1.88c.006 5.681.07 11.62.168 15.532 2.45.198 10.6.283 19.378.29h2.406zm3.595-3.074h-4.986c-7.913-.006-15.345-.038-17.257-.096.048-1.793.06-5.167.063-9.007l.001-3.31v-.482c3.21.058 9.957.09 17.108.095H329.422c7.19-.005 14.175-.037 17.822-.096v12.8c-1.71.058-9.03.09-16.925.096zm24.221 26.08c.192-.96.192-2.047 0-2.944-3.17-.06-12.71-.12-23.033-.127h-2.183c.026-1.865.053-4.397.066-6.934l.004-.95.003-1.41v-1.366c-.003-2.228-.024-4.169-.073-5.276-1.024-.192-2.24-.257-3.328 0-.06 1.329-.09 3.858-.095 6.643v1.409c.004 2.844.036 5.786.095 7.883h-.566l-1.69.001c-9.929.008-19.21.068-22.96.127-.192.897-.192 1.856 0 2.945 4.288.096 15.968.16 27.456.168h4.793c9.705-.008 18.484-.058 21.511-.168zm52.504-12.544c.043-2.944.085-7.651.09-12.928V90.38c-.001-2.115-.01-4.298-.026-6.477.747.02 1.643.035 2.553.04l.683.002c1.59 0 3.121-.032 3.868-.106.128-.96.128-2.177 0-2.945-1.28-.064-4.864-.064-7.104 0v-.596l-.001-4.645c-.003-5.067-.015-9.495-.063-12.23-.896-.257-2.304-.257-3.328 0-.028 3.611-.043 10.204-.047 17.24V87.5c.004 7.059.02 13.746.047 17.522 1.088.192 2.496.192 3.328 0zm-14.592-19.648c.256-4.736.256-14.655-.128-20.287-3.017-.138-7.939-.204-13.041-.22l-1.279-.004c-6.401-.01-12.862.057-16.016.16-.192.832-.192 2.112 0 2.944 2.09.022 5.613.037 9.47.04l1.06.001H375.206c5.937-.006 11.836-.037 13.982-.105.019 1 .026 2.504.028 4.248v1.474c-.002 3.707-.024 8.08-.027 10.993l-.001.757c.832.255 2.496.255 3.264 0zm6.592 9.473c.192-.96.192-1.92 0-2.944-2.83-.103-9.134-.124-16.02-.128h-5.1c.023-1.636.038-3.421.041-5.195v-1.178c-.002-2.738-.033-5.36-.105-7.26-.96-.255-2.368-.255-3.392 0-.072 1.9-.103 4.522-.106 7.26v1.178c.004 1.774.019 3.559.042 5.195-6.592 0-12.672.063-15.744.127-.256.897-.256 1.984 0 2.945 3.554.09 11.122.137 18.867.143h3.319c7.717-.006 15.062-.054 18.198-.143zm9.024 24.448c.192-.704.192-2.177 0-2.88-2.535-.048-8.16-.07-14.471-.074h-5.11c-9.183.006-18.46.04-21.059.074.058-1.455.09-3.928.095-6.565v-1.596c-.005-2.669-.037-5.332-.095-7.136-.896-.191-2.304-.191-3.2 0-.101 2.06-.185 5.637-.194 9.279v1.15c.005 2.874.06 5.694.194 7.748 2.812.15 11.227.23 20.043.239h3.084c8.84-.009 17.477-.088 20.713-.24zm45.4-45.633c.192-.768.192-2.112 0-2.88-1.31-.04-4.64-.055-8.813-.06l-.792-.001h-.403l-.819-.001h-.415l-4.761-.001h-.445c.023-1.083.038-2.34.041-3.596v-.834c-.002-1.937-.033-3.775-.105-4.85-1.024-.257-2.368-.257-3.392 0-.072 1.075-.103 2.913-.106 4.85v.834c.004 1.256.019 2.513.042 3.596h-6.088l-.827.001h-.408l-.803.001c-4.5.006-8.12.02-9.474.061-.192.769-.192 2.112 0 2.88 2.06.06 9.22.091 16.79.096h3.988c7.57-.005 14.73-.037 16.79-.096zm11.456 46.08c.06-3.603.12-14.647.127-26.096l.001-1.691v-.564c2.56.063 5.056.063 7.36-.065.128-.96.128-2.175 0-2.944-2.304-.064-4.8-.064-7.36-.064V86.115c-.009-10.051-.068-19.292-.128-22.692-.896-.257-2.304-.257-3.328 0-.088 3.709-.136 14.284-.143 25.378v5.802c.007 11.081.055 21.577.143 25.14 1.088.192 2.496.192 3.328 0zm-29.568-2.368c11.776 0 16.576-5.503 16.576-18.688 0-13.184-4.8-18.688-16.576-18.688s-16.576 5.504-16.576 18.688 4.8 18.688 16.576 18.688zm0-3.072c-9.408 0-13.12-4.224-13.12-15.616s3.712-15.616 13.12-15.616 13.12 4.225 13.12 15.617c0 11.392-3.712 15.615-13.12 15.615zm90.968 5.504c.064-3.807.112-15.903.12-28.055v-1.458l.001-.729v-2.176-2.157c-.007-9.762-.042-18.566-.121-21.872-.896-.257-2.24-.257-3.264 0-.088 3.709-.136 14.311-.143 25.434v2.181V94.611c.007 11.11.055 21.633.143 25.195 1.088.193 2.432.193 3.264 0zm-12.544-.64c.064-3.743.112-15.632.12-27.575v-1.434l.001-.715v-2.14-2.12c-.007-9.595-.042-18.25-.121-21.504-.896-.255-2.24-.255-3.264 0-.06 2.959-.12 10.417-.127 18.99l-.001 1.554c-3.584-.063-7.232-.063-10.816 0-.128.96-.128 1.985 0 2.945 3.584.127 7.232.127 10.816.064v7.775l.001.553v1.1l.001.547v1.09c.008 9.402.034 17.774.126 20.87 1.088.193 2.432.193 3.264 0zm-36.8-2.816c1.564-3.022 3.998-7.861 6.478-12.839l.595-1.196c1.787-3.593 3.564-7.187 5.023-10.156 3.584 6.975 9.472 17.983 12.416 23.295 1.088-.32 2.368-1.023 2.88-1.6-1.728-3.38-4.647-8.878-7.617-14.383l-.66-1.222c-1.872-3.46-3.73-6.86-5.291-9.674.023-2.435.037-5.51.041-8.682l.001-1.193c.002-5.38-.03-10.849-.106-13.806-1.024-.256-2.368-.256-3.392 0-.128 4.864-.128 16.64-.064 23.552-2.31 4.483-5.105 10.01-7.651 15.092l-.583 1.164c-2.022 4.042-3.844 7.717-5.078 10.24.64.64 2.048 1.28 3.008 1.409zm82.2-21.695c18.304 0 24.128-4.928 24.128-14.593 0-9.663-5.824-14.591-24.128-14.591-18.304 0-24.128 4.927-24.128 14.591 0 9.665 5.824 14.593 24.128 14.593zm0-3.073c-16 0-20.672-3.84-20.672-11.52s4.672-11.52 20.672-11.52 20.672 3.84 20.672 11.52-4.672 11.52-20.672 11.52zm26.88 25.985c.192-.96.192-2.048 0-2.944-1.467-.045-4.26-.059-7.867-.063h-1.333l-3.352-.001h-.504c.034-2.542.069-6.28.073-9.665v-1.361c-.002-2.37-.023-4.44-.073-5.615-1.024-.192-2.24-.256-3.328 0-.128 3.008-.128 11.904 0 16.576h-20.992c.034-2.452.067-6.07.073-9.387v-1.854c-.004-2.25-.025-4.207-.073-5.335-1.024-.192-2.24-.256-3.328 0-.128 3.008-.128 11.904 0 16.576-5.824.064-10.624.064-13.056.129-.192.895-.192 1.855 0 2.944 4.288.096 15.968.16 27.456.168h4.793c9.705-.008 18.484-.058 21.511-.168z"/>
    </defs>
    <g fill="none" fill-rule="evenodd">
        <g>
            <g transform="translate(-667 -203) translate(667 203)">
                <mask id="ci4eyc0uwc" fill="#fff">
                    <use xlink:href="#8gt88c4dba"/>
                </mask>
                <use fill="#FFF" fill-rule="nonzero" xlink:href="#8gt88c4dba"/>
                <path fill="url(#meywzoaowb)" d="M-8 54.462H230V131.462H-8z" mask="url(#ci4eyc0uwc)"/>
            </g>
        </g>
    </g>
</svg>
